<svg width="2004" height="449" viewBox="0 0 2004 449" fill="none" xmlns="http://www.w3.org/2000/svg">
<path d="M140.778 141.298L201.025 9.8053L260.795 141.298L392.288 201.068L260.795 261.315L201.025 392.33L140.778 261.315L9.76318 201.068L140.778 141.298Z" fill="#F8B4E3" stroke="#1F1F1F" stroke-width="8"/>
<path d="M431.58 369.403C453.523 271.198 453.523 147.453 431.94 49.2487H560.001C759.288 49.6084 749.216 257.529 560.001 257.888H518.633C520.792 296.739 525.828 334.509 533.382 369.403H431.58ZM517.554 190.26C517.554 211.484 517.194 220.477 517.914 244.938H552.807C600.29 244.938 647.774 179.109 622.953 106.445C614.679 81.6238 598.852 61.1196 571.153 61.1196C519.353 61.1196 517.554 151.77 517.554 190.26ZM726.913 346.021C707.848 293.141 759.648 240.981 708.927 146.014H803.534C819.002 197.095 776.195 283.788 783.749 331.632C785.908 347.1 795.62 356.453 807.132 356.453C835.19 356.453 875.119 300.695 849.579 146.014H944.186C922.603 234.147 922.603 281.27 944.186 369.403H849.579C855.334 346.38 859.291 325.876 862.169 306.811C846.341 367.604 804.613 376.597 772.598 376.597C752.454 376.597 733.748 365.086 726.913 346.021ZM963.971 146.014H1058.58C1044.91 201.052 1039.87 239.902 1043.11 283.069C1047.43 184.864 1098.87 138.82 1138.8 138.82C1157.86 138.82 1174.05 149.252 1181.24 169.396C1199.95 222.276 1148.51 274.436 1199.23 369.403H1104.62C1089.15 318.322 1131.6 231.629 1124.41 183.785C1122.61 171.914 1116.85 166.159 1109.66 166.159C1084.12 166.159 1037.35 238.463 1058.58 369.403H963.971C985.195 281.27 985.195 234.147 963.971 146.014ZM1219.01 333.071C1203.55 306.091 1215.78 281.63 1242.4 281.63C1255.71 281.63 1272.25 287.745 1290.96 302.494C1270.82 317.243 1272.61 341.344 1290.96 356.093C1298.51 362.208 1306.43 365.086 1314.34 365.086C1344.2 365.086 1368.66 325.157 1329.09 297.818C1312.54 286.307 1288.44 277.313 1267.58 265.802C1211.82 234.866 1207.14 173.353 1270.82 148.532C1288.8 141.698 1310.02 138.1 1330.17 138.1C1368.3 138.1 1403.19 150.331 1406.79 174.433C1409.67 192.778 1394.92 212.563 1363.98 216.16C1331.25 219.758 1314.7 194.217 1338.08 174.433C1348.16 166.159 1344.56 149.612 1318.3 149.252C1302.11 149.252 1259.66 193.858 1306.43 213.283C1349.23 231.269 1417.58 242.78 1417.58 303.214C1417.58 330.193 1399.96 352.136 1376.57 364.007C1360.03 372.28 1338.8 376.597 1316.86 376.597C1277.29 376.597 1236.28 362.568 1219.01 333.071ZM1551.04 337.028C1537.73 363.647 1512.19 376.957 1487.73 376.957C1452.48 376.957 1419.02 349.618 1426.94 295.659C1433.77 247.816 1479.81 216.88 1523.34 216.88C1540.97 216.88 1558.23 221.916 1572.26 233.067C1578.74 219.758 1583.41 199.613 1576.94 177.67C1571.54 159.684 1558.23 149.612 1547.8 149.612C1540.25 149.612 1534.13 154.648 1533.41 165.08C1530.54 201.052 1508.95 210.045 1491.33 212.203C1458.59 215.801 1443.48 188.102 1466.86 167.957C1488.81 148.532 1519.02 138.1 1547.44 138.1C1596.36 138.1 1640.61 169.037 1630.18 237.024C1624.78 272.277 1617.59 311.127 1648.88 369.403H1554.28C1551.04 358.251 1550.32 347.819 1551.04 337.028ZM1500.32 285.587C1490.97 322.998 1502.84 347.1 1519.02 347.1C1535.57 347.1 1556.44 321.2 1562.55 257.529C1562.55 240.981 1555 233.427 1545.28 233.427C1529.82 233.427 1508.59 252.133 1500.32 285.587ZM1665.43 369.403C1686.66 281.27 1686.66 137.381 1665.43 49.2487H1760.04C1738.46 137.381 1738.46 281.27 1760.04 369.403H1665.43ZM1893.14 337.028C1879.83 363.647 1854.29 376.957 1829.83 376.957C1794.57 376.957 1761.12 349.618 1769.03 295.659C1775.87 247.816 1821.91 216.88 1865.44 216.88C1883.06 216.88 1900.33 221.916 1914.36 233.067C1920.84 219.758 1925.51 199.613 1919.04 177.67C1913.64 159.684 1900.33 149.612 1889.9 149.612C1882.35 149.612 1876.23 154.648 1875.51 165.08C1872.63 201.052 1851.05 210.045 1833.42 212.203C1800.69 215.801 1785.58 188.102 1808.96 167.957C1830.9 148.532 1861.12 138.1 1889.54 138.1C1938.46 138.1 1982.71 169.037 1972.28 237.024C1966.88 272.277 1959.69 311.127 1990.98 369.403H1896.37C1893.14 358.251 1892.42 347.819 1893.14 337.028ZM1842.42 285.587C1833.06 322.998 1844.93 347.1 1861.12 347.1C1877.67 347.1 1898.53 321.2 1904.65 257.529C1904.65 240.981 1897.09 233.427 1887.38 233.427C1871.91 233.427 1850.69 252.133 1842.42 285.587Z" fill="#38B8FF"/>
<path d="M431.58 369.403L427.676 368.53L426.588 373.403H431.58V369.403ZM431.94 49.2487V45.2487H426.965L428.033 50.1074L431.94 49.2487ZM560.001 49.2487L560.009 45.2487H560.001V49.2487ZM560.001 257.888V261.888L560.009 261.888L560.001 257.888ZM518.633 257.888V253.888H514.405L514.639 258.11L518.633 257.888ZM533.382 369.403V373.403H538.341L537.291 368.556L533.382 369.403ZM517.914 244.938L513.916 245.056L514.03 248.938H517.914V244.938ZM622.953 106.445L619.158 107.71L619.163 107.724L619.168 107.738L622.953 106.445ZM435.484 370.275C457.555 271.496 457.554 147.16 435.847 48.3901L428.033 50.1074C449.492 147.747 449.491 270.901 427.676 368.53L435.484 370.275ZM431.94 53.2487H560.001V45.2487H431.94V53.2487ZM559.994 53.2487C609.143 53.3374 644.919 66.2202 668.166 85.0576C691.381 103.87 702.289 128.746 701.691 153.472C700.501 202.672 653.211 253.711 559.994 253.888L560.009 261.888C656.007 261.706 708.36 208.605 709.688 153.665C710.349 126.321 698.235 99.1272 673.202 78.8421C648.2 58.582 610.503 45.3399 560.009 45.2487L559.994 53.2487ZM560.001 253.888H518.633V261.888H560.001V253.888ZM514.639 258.11C516.809 297.156 521.871 335.137 529.472 370.249L537.291 368.556C529.785 333.882 524.775 296.321 522.627 257.666L514.639 258.11ZM533.382 365.403H431.58V373.403H533.382V365.403ZM513.554 190.26C513.554 211.406 513.194 220.516 513.916 245.056L521.912 244.821C521.195 220.438 521.554 211.562 521.554 190.26H513.554ZM517.914 248.938H552.807V240.938H517.914V248.938ZM552.807 248.938C578.401 248.938 603.282 231.302 618.461 204.936C633.719 178.432 639.534 142.613 626.738 105.152L619.168 107.738C631.193 142.941 625.677 176.368 611.528 200.945C597.299 225.66 574.696 240.938 552.807 240.938V248.938ZM626.748 105.18C618.266 79.7354 601.44 57.1196 571.153 57.1196V65.1196C596.263 65.1196 611.093 83.5123 619.158 107.71L626.748 105.18ZM571.153 57.1196C556.836 57.1196 545.93 63.4616 537.83 73.3506C529.845 83.0999 524.578 96.2792 521.05 110.278C513.99 138.29 513.554 171.033 513.554 190.26H521.554C521.554 170.997 522.018 139.17 528.807 112.234C532.203 98.7591 537.098 86.8701 544.019 78.4196C550.826 70.1089 559.57 65.1196 571.153 65.1196V57.1196ZM726.913 346.021L730.679 344.671L730.676 344.664L726.913 346.021ZM708.927 146.014V142.014H702.256L705.399 147.899L708.927 146.014ZM803.534 146.014L807.363 144.855L806.502 142.014H803.534V146.014ZM783.749 331.632L787.711 331.079L787.706 331.043L787.701 331.008L783.749 331.632ZM849.579 146.014V142.014H844.864L845.632 146.666L849.579 146.014ZM944.186 146.014L948.071 146.966L949.284 142.014H944.186V146.014ZM944.186 369.403V373.403H949.284L948.071 368.451L944.186 369.403ZM849.579 369.403L845.698 368.433L844.456 373.403H849.579V369.403ZM862.169 306.811L866.124 307.408L858.298 305.803L862.169 306.811ZM730.676 344.664C726.191 332.223 725.821 319.714 727.172 306.214C727.85 299.451 728.951 292.5 730.164 285.194C731.37 277.922 732.688 270.291 733.755 262.332C738.058 230.244 738.32 192.558 712.455 144.13L705.399 147.899C730.255 194.438 729.977 230.315 725.826 261.269C724.78 269.071 723.49 276.542 722.272 283.885C721.059 291.194 719.918 298.371 719.212 305.417C717.798 319.538 718.103 333.378 723.15 347.377L730.676 344.664ZM708.927 150.014H803.534V142.014H708.927V150.014ZM799.706 147.174C803.349 159.204 803.624 173.587 801.929 189.413C800.237 205.211 796.622 222.127 792.711 239.141C788.821 256.068 784.621 273.152 781.888 288.946C779.159 304.713 777.805 319.629 779.798 332.256L787.701 331.008C785.917 319.713 787.081 305.851 789.771 290.31C792.455 274.798 796.575 258.045 800.508 240.933C804.421 223.908 808.136 206.583 809.883 190.265C811.628 173.974 811.454 158.365 807.363 144.855L799.706 147.174ZM779.788 332.184C782.135 349.003 793.052 360.453 807.132 360.453V352.453C798.189 352.453 789.681 345.197 787.711 331.079L779.788 332.184ZM807.132 360.453C823.925 360.453 841.839 344.147 852.276 310.421C862.824 276.335 866.351 223.041 853.525 145.363L845.632 146.666C858.347 223.669 854.679 275.594 844.634 308.056C834.476 340.879 818.397 352.453 807.132 352.453V360.453ZM849.579 150.014H944.186V142.014H849.579V150.014ZM940.301 145.063C929.472 189.283 923.999 223.444 923.999 257.708C923.999 291.973 929.472 326.134 940.301 370.354L948.071 368.451C937.317 324.539 931.999 291.072 931.999 257.708C931.999 224.345 937.317 190.878 948.071 146.966L940.301 145.063ZM944.186 365.403H849.579V373.403H944.186V365.403ZM853.459 370.373C859.247 347.223 863.228 326.594 866.124 307.408L858.214 306.214C855.354 325.158 851.422 345.538 845.698 368.433L853.459 370.373ZM858.298 305.803C850.607 335.343 836.78 351.841 821.396 361.071C805.881 370.38 788.29 372.597 772.598 372.597V380.597C788.922 380.597 808.202 378.317 825.512 367.931C842.953 357.467 857.903 339.072 866.04 307.819L858.298 305.803ZM772.598 372.597C753.913 372.597 736.87 361.941 730.679 344.671L723.148 347.37C730.626 368.231 750.994 380.597 772.598 380.597V372.597ZM963.971 146.014V142.014H958.893L960.082 146.951L963.971 146.014ZM1058.58 146.014L1062.46 146.979L1063.69 142.014H1058.58V146.014ZM1043.11 283.069L1039.12 283.368L1047.11 283.245L1043.11 283.069ZM1181.24 169.396L1185.01 168.062L1185.01 168.051L1181.24 169.396ZM1199.23 369.403V373.403H1205.9L1202.76 367.518L1199.23 369.403ZM1104.62 369.403L1100.79 370.562L1101.65 373.403H1104.62V369.403ZM1124.41 183.785L1128.36 183.191L1128.36 183.186L1124.41 183.785ZM1058.58 369.403V373.403H1063.28L1062.53 368.763L1058.58 369.403ZM963.971 369.403L960.082 368.466L958.893 373.403H963.971V369.403ZM963.971 150.014H1058.58V142.014H963.971V150.014ZM1054.7 145.05C1040.97 200.318 1035.84 239.623 1039.12 283.368L1047.1 282.77C1043.9 240.181 1048.85 201.786 1062.46 146.979L1054.7 145.05ZM1047.11 283.245C1051.38 185.997 1102.02 142.82 1138.8 142.82V134.82C1095.71 134.82 1043.47 183.732 1039.11 282.893L1047.11 283.245ZM1138.8 142.82C1156.19 142.82 1170.86 152.211 1177.48 170.742L1185.01 168.051C1177.24 146.293 1159.53 134.82 1138.8 134.82V142.82ZM1177.47 170.73C1181.88 183.176 1182.2 195.691 1180.83 209.198C1180.15 215.964 1179.04 222.917 1177.84 230.225C1176.63 237.499 1175.32 245.13 1174.27 253.091C1170.01 285.182 1169.84 322.864 1195.7 371.287L1202.76 367.518C1177.9 320.974 1178.09 285.093 1182.2 254.143C1183.23 246.343 1184.51 238.871 1185.73 231.53C1186.94 224.223 1188.08 217.048 1188.79 210.004C1190.22 195.891 1189.97 182.057 1185.01 168.062L1177.47 170.73ZM1199.23 365.403H1104.62V373.403H1199.23V365.403ZM1108.45 368.243C1104.81 356.209 1104.51 341.823 1106.18 325.997C1107.84 310.199 1111.42 293.283 1115.31 276.271C1119.18 259.346 1123.37 242.264 1126.12 226.475C1128.86 210.712 1130.26 195.806 1128.36 183.191L1120.45 184.38C1122.15 195.686 1120.94 209.558 1118.24 225.102C1115.53 240.62 1111.42 257.375 1107.51 274.489C1103.62 291.516 1099.94 308.841 1098.22 325.159C1096.51 341.45 1096.7 357.056 1100.79 370.562L1108.45 368.243ZM1128.36 183.186C1127.39 176.769 1125.29 171.559 1122.06 167.883C1118.76 164.116 1114.44 162.159 1109.66 162.159V170.159C1112.08 170.159 1114.23 171.079 1116.05 173.158C1117.95 175.328 1119.63 178.93 1120.45 184.385L1128.36 183.186ZM1109.66 162.159C1101.52 162.159 1092.79 167.764 1084.89 176.883C1076.85 186.171 1069.05 199.771 1062.81 217.34C1050.32 252.512 1043.93 304.016 1054.63 370.043L1062.53 368.763C1052.01 303.85 1058.38 253.732 1070.35 220.017C1076.34 203.142 1083.7 190.482 1090.94 182.121C1098.33 173.592 1105.03 170.159 1109.66 170.159V162.159ZM1058.58 365.403H963.971V373.403H1058.58V365.403ZM967.86 370.339C978.508 326.121 983.889 291.965 983.889 257.708C983.889 223.452 978.508 189.296 967.86 145.078L960.082 146.951C970.657 190.865 975.889 224.337 975.889 257.708C975.889 291.08 970.657 324.552 960.082 368.466L967.86 370.339ZM1219.01 333.071L1215.54 335.06L1215.55 335.076L1215.56 335.091L1219.01 333.071ZM1290.96 302.494L1293.32 305.722L1297.57 302.612L1293.44 299.353L1290.96 302.494ZM1290.96 356.093L1293.48 352.984L1293.47 352.975L1290.96 356.093ZM1329.09 297.818L1326.81 301.101L1326.82 301.109L1329.09 297.818ZM1267.58 265.802L1265.64 269.3L1265.65 269.305L1267.58 265.802ZM1270.82 148.532L1269.39 144.793L1269.38 144.799L1269.36 144.806L1270.82 148.532ZM1406.79 174.433L1402.83 175.023L1402.84 175.038L1402.84 175.052L1406.79 174.433ZM1363.98 216.16L1364.42 220.136L1364.43 220.135L1364.45 220.134L1363.98 216.16ZM1338.08 174.433L1335.54 171.342L1335.52 171.36L1335.5 171.379L1338.08 174.433ZM1318.3 149.252L1318.35 145.252L1318.33 145.252H1318.3V149.252ZM1306.43 213.283L1307.98 209.595L1307.97 209.592L1307.96 209.589L1306.43 213.283ZM1376.57 364.007L1378.36 367.585L1378.37 367.579L1378.38 367.573L1376.57 364.007ZM1222.49 331.081C1215.21 318.396 1214.79 306.935 1218.54 298.932C1222.24 291.057 1230.39 285.63 1242.4 285.63V277.63C1227.78 277.63 1216.51 284.434 1211.3 295.534C1206.15 306.507 1207.35 320.766 1215.54 335.06L1222.49 331.081ZM1242.4 285.63C1254.5 285.63 1270.2 291.219 1288.48 305.635L1293.44 299.353C1274.31 284.272 1256.91 277.63 1242.4 277.63V285.63ZM1288.6 299.267C1277.58 307.332 1272.27 318.234 1272.53 329.386C1272.78 340.456 1278.51 351.217 1288.45 359.21L1293.47 352.975C1285.06 346.22 1280.72 337.556 1280.52 329.201C1280.33 320.928 1284.19 312.405 1293.32 305.722L1288.6 299.267ZM1288.44 359.202C1296.61 365.812 1305.39 369.086 1314.34 369.086V361.086C1307.47 361.086 1300.42 358.605 1293.48 352.984L1288.44 359.202ZM1314.34 369.086C1331 369.086 1346.05 358.01 1351.51 343.078C1354.27 335.534 1354.58 327 1351.43 318.475C1348.28 309.967 1341.79 301.73 1331.36 294.527L1326.82 301.109C1336.18 307.575 1341.46 314.581 1343.93 321.249C1346.38 327.9 1346.14 334.474 1343.99 340.33C1339.65 352.198 1327.54 361.086 1314.34 361.086V369.086ZM1331.37 294.534C1322.81 288.574 1312.38 283.327 1301.68 278.202C1290.88 273.03 1279.81 267.982 1269.51 262.3L1265.65 269.305C1276.21 275.133 1287.62 280.338 1298.22 285.417C1308.93 290.545 1318.83 295.55 1326.81 301.101L1331.37 294.534ZM1269.52 262.305C1242.5 247.313 1228.58 225.341 1228.41 204.842C1228.25 184.584 1241.54 164.239 1272.27 152.259L1269.36 144.806C1236.42 157.646 1220.21 180.469 1220.41 204.906C1220.61 229.103 1236.9 253.355 1265.64 269.3L1269.52 262.305ZM1272.24 152.272C1289.72 145.627 1310.46 142.1 1330.17 142.1V134.1C1309.59 134.1 1287.88 137.769 1269.39 144.793L1272.24 152.272ZM1330.17 142.1C1348.87 142.1 1366.54 145.109 1379.83 150.896C1393.2 156.718 1401.33 164.946 1402.83 175.023L1410.75 173.842C1408.65 159.817 1397.54 149.879 1383.03 143.561C1368.44 137.207 1349.6 134.1 1330.17 134.1V142.1ZM1402.84 175.052C1405.25 190.415 1393.02 208.757 1363.52 212.187L1364.45 220.134C1396.82 216.369 1414.09 195.142 1410.74 173.813L1402.84 175.052ZM1363.55 212.184C1348.12 213.879 1337.59 208.618 1333.37 201.93C1331.29 198.625 1330.58 194.794 1331.55 190.736C1332.54 186.629 1335.31 182.019 1340.67 177.486L1335.5 171.379C1329.17 176.739 1325.24 182.74 1323.77 188.874C1322.29 195.057 1323.39 201.096 1326.61 206.199C1333 216.329 1347.11 222.039 1364.42 220.136L1363.55 212.184ZM1340.62 177.523C1346.85 172.407 1349.36 164.147 1345.31 156.919C1341.37 149.896 1332.12 145.441 1318.35 145.252L1318.24 153.251C1330.73 153.423 1336.42 157.421 1338.33 160.83C1340.12 164.033 1339.39 168.184 1335.54 171.342L1340.62 177.523ZM1318.3 145.252C1315.44 145.252 1312.39 146.209 1309.49 147.601C1306.54 149.019 1303.47 151.02 1300.52 153.42C1294.63 158.203 1288.87 164.815 1285.18 172.194C1281.5 179.56 1279.69 188.102 1282.49 196.367C1285.32 204.708 1292.52 211.837 1304.89 216.977L1307.96 209.589C1296.95 205.016 1291.93 199.285 1290.07 193.799C1288.18 188.237 1289.23 181.985 1292.33 175.772C1295.43 169.571 1300.4 163.818 1305.56 159.631C1308.13 157.545 1310.67 155.91 1312.95 154.812C1315.29 153.688 1317.11 153.252 1318.3 153.252V145.252ZM1304.88 216.97C1315.69 221.514 1328.22 225.688 1340.48 230.18C1352.86 234.717 1365.17 239.64 1376.09 245.813C1397.82 258.093 1413.58 274.974 1413.58 303.214H1421.58C1421.58 271.02 1403.17 251.928 1380.03 238.848C1368.51 232.34 1355.7 227.236 1343.23 222.668C1330.64 218.054 1318.57 214.044 1307.98 209.595L1304.88 216.97ZM1413.58 303.214C1413.58 328.296 1397.19 349.054 1374.76 360.44L1378.38 367.573C1402.72 355.218 1421.58 332.09 1421.58 303.214H1413.58ZM1374.78 360.429C1358.91 368.365 1338.33 372.597 1316.86 372.597V380.597C1339.27 380.597 1361.14 376.196 1378.36 367.585L1374.78 360.429ZM1316.86 372.597C1277.84 372.597 1238.66 358.721 1222.47 331.05L1215.56 335.091C1233.9 366.415 1276.74 380.597 1316.86 380.597V372.597ZM1551.04 337.028L1555.03 337.294L1547.46 335.239L1551.04 337.028ZM1426.94 295.659L1430.89 296.24L1430.89 296.232L1430.89 296.225L1426.94 295.659ZM1572.26 233.067L1569.77 236.199L1573.68 239.302L1575.86 234.817L1572.26 233.067ZM1576.94 177.67L1580.78 176.538L1580.77 176.529L1580.77 176.521L1576.94 177.67ZM1533.41 165.08L1537.4 165.399L1537.4 165.377L1537.4 165.355L1533.41 165.08ZM1491.33 212.203L1491.76 216.18L1491.79 216.177L1491.81 216.174L1491.33 212.203ZM1466.86 167.957L1469.48 170.988L1469.5 170.97L1469.52 170.953L1466.86 167.957ZM1630.18 237.024L1626.23 236.418L1626.22 236.419L1630.18 237.024ZM1648.88 369.403V373.403H1655.57L1652.41 367.51L1648.88 369.403ZM1554.28 369.403L1550.44 370.518L1551.27 373.403H1554.28V369.403ZM1500.32 285.587L1504.2 286.557L1504.2 286.547L1500.32 285.587ZM1562.55 257.529L1566.53 257.911L1566.55 257.72V257.529H1562.55ZM1547.46 335.239C1534.87 360.427 1510.76 372.957 1487.73 372.957V380.957C1513.62 380.957 1540.59 366.867 1554.62 338.816L1547.46 335.239ZM1487.73 372.957C1471.12 372.957 1455.1 366.521 1444.17 353.921C1433.28 341.375 1427.07 322.284 1430.89 296.24L1422.98 295.079C1418.88 322.993 1425.44 344.55 1438.12 359.164C1450.75 373.724 1469.09 380.957 1487.73 380.957V372.957ZM1430.89 296.225C1437.39 250.745 1481.38 220.88 1523.34 220.88V212.88C1478.25 212.88 1430.15 244.887 1422.98 295.094L1430.89 296.225ZM1523.34 220.88C1540.21 220.88 1556.56 225.696 1569.77 236.199L1574.75 229.936C1559.91 218.136 1541.72 212.88 1523.34 212.88V220.88ZM1575.86 234.817C1582.67 220.828 1587.6 199.647 1580.78 176.538L1573.1 178.802C1579.23 199.579 1574.81 218.687 1568.67 231.318L1575.86 234.817ZM1580.77 176.521C1575.05 157.465 1560.57 145.612 1547.8 145.612V153.612C1555.89 153.612 1568.03 161.903 1573.11 178.819L1580.77 176.521ZM1547.8 145.612C1543.11 145.612 1538.63 147.195 1535.22 150.605C1531.82 154 1529.83 158.859 1529.42 164.804L1537.4 165.355C1537.71 160.868 1539.14 157.993 1540.87 156.262C1542.59 154.547 1544.94 153.612 1547.8 153.612V145.612ZM1529.43 164.761C1528.05 181.933 1522.28 192.126 1515.26 198.321C1508.14 204.594 1499.23 207.205 1490.84 208.233L1491.81 216.174C1501.04 215.043 1511.74 212.079 1520.54 204.323C1529.43 196.489 1535.9 184.199 1537.4 165.399L1529.43 164.761ZM1490.89 208.227C1475.61 209.906 1465.5 204.225 1461.56 197.056C1457.74 190.119 1458.84 180.151 1469.48 170.988L1464.25 164.927C1451.51 175.908 1448.47 189.862 1454.55 200.911C1460.5 211.728 1474.31 218.098 1491.76 216.18L1490.89 208.227ZM1469.52 170.953C1490.67 152.225 1519.92 142.1 1547.44 142.1V134.1C1518.13 134.1 1486.94 144.84 1464.21 164.962L1469.52 170.953ZM1547.44 142.1C1571.12 142.1 1593.27 149.59 1608.21 164.864C1623.04 180.028 1631.29 203.414 1626.23 236.418L1634.13 237.631C1639.5 202.647 1630.85 176.571 1613.93 159.27C1597.12 142.079 1572.68 134.1 1547.44 134.1V142.1ZM1626.22 236.419C1623.54 253.957 1620.31 272.928 1621.78 294.848C1623.26 316.853 1629.46 341.685 1645.36 371.295L1652.41 367.51C1637.01 338.845 1631.16 315.115 1629.76 294.312C1628.36 273.425 1631.42 255.344 1634.13 237.63L1626.22 236.419ZM1648.88 365.403H1554.28V373.403H1648.88V365.403ZM1558.12 368.287C1555.03 357.663 1554.34 347.709 1555.03 337.294L1547.05 336.761C1546.3 347.93 1547.05 358.84 1550.44 370.518L1558.12 368.287ZM1496.44 284.617C1491.63 303.844 1492.17 320.066 1496.33 331.718C1500.47 343.312 1508.6 351.1 1519.02 351.1V343.1C1513.26 343.1 1507.36 338.836 1503.86 329.027C1500.38 319.276 1499.65 304.741 1504.2 286.557L1496.44 284.617ZM1519.02 351.1C1529.47 351.1 1539.88 343.046 1548.19 328.139C1556.6 313.057 1563.44 290.069 1566.53 257.911L1558.57 257.146C1555.54 288.659 1548.89 310.457 1541.21 324.243C1533.42 338.204 1525.12 343.1 1519.02 343.1V351.1ZM1566.55 257.529C1566.55 248.704 1564.54 241.696 1560.71 236.805C1556.79 231.804 1551.27 229.427 1545.28 229.427V237.427C1549.01 237.427 1552.13 238.828 1554.41 241.741C1556.78 244.764 1558.55 249.806 1558.55 257.529H1566.55ZM1545.28 229.427C1536.03 229.427 1525.87 234.923 1517.18 244.231C1508.39 253.639 1500.72 267.308 1496.44 284.627L1504.2 286.547C1508.19 270.412 1515.27 258.001 1523.03 249.692C1530.88 241.284 1539.07 237.427 1545.28 237.427V229.427ZM1665.43 369.403L1661.54 368.466L1660.35 373.403H1665.43V369.403ZM1665.43 49.2487V45.2487H1660.35L1661.54 50.1852L1665.43 49.2487ZM1760.04 49.2487L1763.92 50.2002L1765.14 45.2487H1760.04V49.2487ZM1760.04 369.403V373.403H1765.14L1763.92 368.451L1760.04 369.403ZM1669.32 370.339C1690.69 281.591 1690.69 137.06 1669.32 48.3122L1661.54 50.1852C1682.62 137.702 1682.62 280.949 1661.54 368.466L1669.32 370.339ZM1665.43 53.2487H1760.04V45.2487H1665.43V53.2487ZM1756.15 48.2973C1734.42 137.055 1734.42 281.597 1756.15 370.354L1763.92 368.451C1742.49 280.944 1742.49 137.707 1763.92 50.2002L1756.15 48.2973ZM1760.04 365.403H1665.43V373.403H1760.04V365.403ZM1893.14 337.028L1897.13 337.294L1889.56 335.239L1893.14 337.028ZM1769.03 295.659L1772.99 296.24L1772.99 296.232L1772.99 296.225L1769.03 295.659ZM1914.36 233.067L1911.87 236.199L1915.78 239.302L1917.96 234.817L1914.36 233.067ZM1919.04 177.67L1922.87 176.538L1922.87 176.529L1922.87 176.521L1919.04 177.67ZM1875.51 165.08L1879.5 165.399L1879.5 165.377L1879.5 165.355L1875.51 165.08ZM1833.42 212.203L1833.86 216.18L1833.88 216.177L1833.91 216.174L1833.42 212.203ZM1808.96 167.957L1811.57 170.988L1811.59 170.97L1811.61 170.953L1808.96 167.957ZM1972.28 237.024L1968.32 236.418L1968.32 236.419L1972.28 237.024ZM1990.98 369.403V373.403H1997.67L1994.51 367.51L1990.98 369.403ZM1896.37 369.403L1892.53 370.518L1893.37 373.403H1896.37V369.403ZM1842.42 285.587L1846.3 286.557L1846.3 286.547L1842.42 285.587ZM1904.65 257.529L1908.63 257.911L1908.65 257.72V257.529H1904.65ZM1889.56 335.239C1876.96 360.427 1852.86 372.957 1829.83 372.957V380.957C1855.71 380.957 1882.69 366.867 1896.71 338.816L1889.56 335.239ZM1829.83 372.957C1813.21 372.957 1797.19 366.521 1786.26 353.921C1775.38 341.375 1769.17 322.284 1772.99 296.24L1765.07 295.079C1760.98 322.993 1767.54 344.55 1780.22 359.164C1792.85 373.724 1811.19 380.957 1829.83 380.957V372.957ZM1772.99 296.225C1779.49 250.745 1823.48 220.88 1865.44 220.88V212.88C1820.34 212.88 1772.24 244.887 1765.07 295.094L1772.99 296.225ZM1865.44 220.88C1882.31 220.88 1898.66 225.696 1911.87 236.199L1916.85 229.936C1902 218.136 1883.82 212.88 1865.44 212.88V220.88ZM1917.96 234.817C1924.76 220.828 1929.69 199.647 1922.87 176.538L1915.2 178.802C1921.33 199.579 1916.91 218.687 1910.76 231.318L1917.96 234.817ZM1922.87 176.521C1917.15 157.465 1902.67 145.612 1889.9 145.612V153.612C1897.99 153.612 1910.13 161.903 1915.21 178.819L1922.87 176.521ZM1889.9 145.612C1885.21 145.612 1880.72 147.195 1877.31 150.605C1873.92 154 1871.93 158.859 1871.52 164.804L1879.5 165.355C1879.81 160.868 1881.24 157.993 1882.97 156.262C1884.69 154.547 1887.04 153.612 1889.9 153.612V145.612ZM1871.52 164.761C1870.15 181.933 1864.38 192.126 1857.35 198.321C1850.23 204.594 1841.33 207.205 1832.94 208.233L1833.91 216.174C1843.14 215.043 1853.84 212.079 1862.64 204.323C1871.53 196.489 1877.99 184.199 1879.5 165.399L1871.52 164.761ZM1832.99 208.227C1817.71 209.906 1807.6 204.225 1803.65 197.056C1799.84 190.119 1800.94 180.151 1811.57 170.988L1806.35 164.927C1793.6 175.908 1790.57 189.862 1796.64 200.911C1802.59 211.728 1816.4 218.098 1833.86 216.18L1832.99 208.227ZM1811.61 170.953C1832.77 152.225 1862.02 142.1 1889.54 142.1V134.1C1860.22 134.1 1829.04 144.84 1806.31 164.962L1811.61 170.953ZM1889.54 142.1C1913.22 142.1 1935.37 149.59 1950.31 164.864C1965.13 180.028 1973.39 203.414 1968.32 236.418L1976.23 237.631C1981.6 202.647 1972.94 176.571 1956.03 159.27C1939.22 142.079 1914.78 134.1 1889.54 134.1V142.1ZM1968.32 236.419C1965.64 253.957 1962.4 272.928 1963.88 294.848C1965.36 316.853 1971.56 341.685 1987.46 371.295L1994.51 367.51C1979.11 338.845 1973.26 315.115 1971.86 294.312C1970.46 273.425 1973.52 255.344 1976.23 237.63L1968.32 236.419ZM1990.98 365.403H1896.37V373.403H1990.98V365.403ZM1900.22 368.287C1897.13 357.663 1896.43 347.709 1897.13 337.294L1889.15 336.761C1888.4 347.93 1889.14 358.84 1892.53 370.518L1900.22 368.287ZM1838.54 284.617C1833.73 303.844 1834.26 320.066 1838.42 331.718C1842.56 343.312 1850.7 351.1 1861.12 351.1V343.1C1855.36 343.1 1849.46 338.836 1845.96 329.027C1842.48 319.276 1841.75 304.741 1846.3 286.557L1838.54 284.617ZM1861.12 351.1C1871.57 351.1 1881.98 343.046 1890.29 328.139C1898.7 313.057 1905.54 290.069 1908.63 257.911L1900.67 257.146C1897.64 288.659 1890.99 310.457 1883.3 324.243C1875.52 338.204 1867.22 343.1 1861.12 343.1V351.1ZM1908.65 257.529C1908.65 248.704 1906.64 241.696 1902.8 236.805C1898.88 231.804 1893.37 229.427 1887.38 229.427V237.427C1891.11 237.427 1894.22 238.828 1896.51 241.741C1898.88 244.764 1900.65 249.806 1900.65 257.529H1908.65ZM1887.38 229.427C1878.13 229.427 1867.97 234.923 1859.28 244.231C1850.49 253.639 1842.82 267.308 1838.53 284.627L1846.3 286.547C1850.29 270.412 1857.36 258.001 1865.12 249.692C1872.98 241.284 1881.17 237.427 1887.38 237.427V229.427Z" fill="#1F1F1F"/>
</svg>
