<svg width="635" height="163" viewBox="0 0 635 163" fill="none" xmlns="http://www.w3.org/2000/svg">
<path d="M49.7151 51.1933L50.6061 50.7868L51.014 49.8965L70.9743 6.33238L90.7729 49.8893L91.1809 50.7868L92.0784 51.1948L135.635 70.9934L92.0712 90.9537L91.1809 91.3616L90.7744 92.2526L70.9743 135.654L51.0125 92.2454L50.6061 91.3616L49.7223 90.9552L6.31332 70.9934L49.7151 51.1933Z" fill="#F8B4E3" stroke="#1F1F1F" stroke-width="5.25806"/>
<path d="M155.435 82.0617L155.025 34.7602H193.167C205.562 34.7602 215.041 37.3577 221.603 42.5526C228.165 47.6565 231.446 55.4034 231.446 65.7933C231.446 86.8466 218.459 97.3732 192.484 97.3732H177.036L177.309 129.5H155.025L155.435 82.0617ZM193.441 80.1478C204.651 80.1478 210.256 75.4541 210.256 66.0667C210.256 61.6009 208.798 58.2287 205.881 55.9502C203.056 53.6717 198.909 52.5325 193.441 52.5325H177.036V80.1478H193.441ZM302.394 91.4947L302.531 129.5H282.024L282.298 119.383H282.024C279.928 123.029 277.012 125.946 273.275 128.133C269.538 130.32 265.346 131.414 260.698 131.414C252.677 131.414 246.571 129.044 242.378 124.305C238.277 119.475 236.227 112.047 236.227 102.021V91.4947L236.09 56.6337H256.596L256.46 91.4947V98.7403C256.46 103.662 257.508 107.399 259.604 109.951C261.791 112.502 264.799 113.778 268.627 113.778C272.637 113.778 275.872 112.183 278.333 108.994C280.885 105.804 282.161 101.52 282.161 96.1428V91.4947L282.024 56.6337H302.531L302.394 91.4947ZM314.351 56.6337H334.857V66.2034H335.131C339.961 58.5477 347.07 54.7198 356.457 54.7198C364.66 54.7198 370.812 57.0894 374.913 61.8287C379.106 66.568 381.202 73.9959 381.202 84.1124V129.5H360.695V87.2567C360.695 77.2313 356.685 72.2186 348.665 72.2186C344.29 72.2186 340.872 73.8136 338.412 77.0035C336.042 80.1022 334.857 84.3858 334.857 89.8542V129.5H314.351V56.6337ZM418.714 131.551C399.574 131.551 388.638 124.123 385.903 109.267L402.855 104.619C403.493 107.9 405.088 110.588 407.64 112.685C410.192 114.69 413.883 115.692 418.714 115.692C422.45 115.692 425.321 115.1 427.326 113.915C429.423 112.73 430.471 110.999 430.471 108.72C430.471 106.624 429.514 104.983 427.6 103.799C425.686 102.614 422.405 101.611 417.757 100.791C407.367 99.0593 399.802 96.3707 395.063 92.7251C390.415 89.0795 388.091 83.7478 388.091 76.7301C388.091 69.9857 390.734 64.654 396.02 60.735C401.306 56.7249 408.506 54.7198 417.62 54.7198C435.301 54.7198 445.554 61.7376 448.38 75.7731L431.291 80.4212C429.833 73.8592 425.276 70.5781 417.62 70.5781C414.886 70.5781 412.653 71.125 410.921 72.2186C409.19 73.3123 408.324 74.6794 408.324 76.3199C408.324 78.325 409.281 79.9655 411.195 81.2415C413.2 82.4263 416.8 83.4744 421.995 84.3858C432.293 86.2997 439.63 89.0795 444.005 92.7251C448.471 96.2795 450.704 101.566 450.704 108.583C450.704 115.692 447.924 121.297 442.364 125.399C436.896 129.5 429.012 131.551 418.714 131.551ZM471.658 131.551C464.367 131.551 458.625 129.682 454.432 125.946C450.24 122.209 448.144 117.287 448.144 111.181C448.144 102.34 451.561 96.1884 458.397 92.7251C465.323 89.2618 475.713 87.5301 489.567 87.5301H494.215V85.3428C494.215 80.1478 493.212 76.3199 491.207 73.8592C489.202 71.3984 485.967 70.168 481.501 70.168C476.579 70.168 472.979 71.5351 470.701 74.2693C468.513 77.0035 467.42 80.3757 467.42 84.3858L450.604 80.0111C451.151 72.1731 454.25 66.0211 459.901 61.5553C465.551 56.9983 473.207 54.7198 482.868 54.7198C503.374 54.7198 513.628 64.654 513.628 84.5225V104.072C513.628 107.809 514.174 110.588 515.268 112.411C516.362 114.143 518.048 115.009 520.326 115.009C521.602 115.009 522.878 114.826 524.154 114.462L528.529 128.953C524.792 130.594 520.782 131.414 516.498 131.414C511.759 131.414 507.658 130.411 504.195 128.406C500.731 126.401 498.635 123.394 497.906 119.383V117.743H497.769C495.491 122.027 492.119 125.399 487.653 127.859C483.187 130.32 477.855 131.551 471.658 131.551ZM467.693 108.72C467.693 111.181 468.559 113.186 470.291 114.735C472.022 116.194 474.392 116.923 477.399 116.923C480.225 116.923 482.913 116.194 485.465 114.735C488.108 113.186 490.205 111.044 491.754 108.31C493.395 105.576 494.215 102.431 494.215 98.877V98.0568H491.07C482.777 98.0568 476.807 98.8315 473.161 100.381C469.516 101.839 467.693 104.619 467.693 108.72ZM529.375 34.6235H549.881V129.5H529.375V34.6235ZM577.981 131.551C570.69 131.551 564.948 129.682 560.756 125.946C556.564 122.209 554.467 117.287 554.467 111.181C554.467 102.34 557.885 96.1884 564.721 92.7251C571.647 89.2618 582.037 87.5301 595.89 87.5301H600.539V85.3428C600.539 80.1478 599.536 76.3199 597.531 73.8592C595.526 71.3984 592.29 70.168 587.825 70.168C582.903 70.168 579.303 71.5351 577.025 74.2693C574.837 77.0035 573.743 80.3757 573.743 84.3858L556.928 80.0111C557.475 72.1731 560.574 66.0211 566.224 61.5553C571.875 56.9983 579.531 54.7198 589.192 54.7198C609.698 54.7198 619.951 64.654 619.951 84.5225V104.072C619.951 107.809 620.498 110.588 621.592 112.411C622.686 114.143 624.372 115.009 626.65 115.009C627.926 115.009 629.202 114.826 630.478 114.462L634.853 128.953C631.116 130.594 627.106 131.414 622.822 131.414C618.083 131.414 613.982 130.411 610.518 128.406C607.055 126.401 604.959 123.394 604.23 119.383V117.743H604.093C601.815 122.027 598.442 125.399 593.977 127.859C589.511 130.32 584.179 131.551 577.981 131.551ZM574.017 108.72C574.017 111.181 574.883 113.186 576.614 114.735C578.346 116.194 580.716 116.923 583.723 116.923C586.549 116.923 589.237 116.194 591.789 114.735C594.432 113.186 596.528 111.044 598.078 108.31C599.718 105.576 600.539 102.431 600.539 98.877V98.0568H597.394C589.101 98.0568 583.131 98.8315 579.485 100.381C575.84 101.839 574.017 104.619 574.017 108.72Z" fill="#38B8FF"/>
</svg>
