<svg width="635" height="163" viewBox="0 0 635 163" fill="none" xmlns="http://www.w3.org/2000/svg">
<path d="M49.4541 50.621L50.1319 50.3118L50.4422 49.6345L70.9766 4.81727L91.3456 49.629L91.656 50.3118L92.3387 50.6221L137.15 70.9911L92.3333 91.5256L91.656 91.8359L91.3467 92.5137L70.9766 137.165L50.441 92.5082L50.1319 91.8359L49.4595 91.5267L4.80278 70.9911L49.4541 50.621Z" fill="#F8B4E3" stroke="#1F1F1F" stroke-width="4"/>
<mask id="path-2-outside-1_273_138" maskUnits="userSpaceOnUse" x="150.483" y="30.5" width="490" height="106" fill="black">
<rect fill="white" x="150.483" y="30.5" width="490" height="106"/>
<path d="M155.435 82.0617L155.025 34.7602H193.167C205.562 34.7602 215.041 37.3577 221.603 42.5526C228.165 47.6565 231.446 55.4034 231.446 65.7933C231.446 86.8466 218.459 97.3732 192.484 97.3732H177.036L177.309 129.5H155.025L155.435 82.0617ZM193.441 80.1478C204.651 80.1478 210.256 75.4541 210.256 66.0667C210.256 61.6009 208.798 58.2287 205.881 55.9502C203.056 53.6717 198.909 52.5325 193.441 52.5325H177.036V80.1478H193.441ZM302.394 91.4947L302.531 129.5H282.024L282.298 119.383H282.024C279.928 123.029 277.012 125.946 273.275 128.133C269.538 130.32 265.346 131.414 260.698 131.414C252.677 131.414 246.571 129.044 242.378 124.305C238.277 119.475 236.227 112.047 236.227 102.021V91.4947L236.09 56.6337H256.596L256.46 91.4947V98.7403C256.46 103.662 257.508 107.399 259.604 109.951C261.791 112.502 264.799 113.778 268.627 113.778C272.637 113.778 275.872 112.183 278.333 108.994C280.885 105.804 282.161 101.52 282.161 96.1428V91.4947L282.024 56.6337H302.531L302.394 91.4947ZM314.351 56.6337H334.857V66.2034H335.131C339.961 58.5477 347.07 54.7198 356.457 54.7198C364.66 54.7198 370.812 57.0894 374.913 61.8287C379.106 66.568 381.202 73.9959 381.202 84.1124V129.5H360.695V87.2567C360.695 77.2313 356.685 72.2186 348.665 72.2186C344.29 72.2186 340.872 73.8136 338.412 77.0035C336.042 80.1022 334.857 84.3858 334.857 89.8542V129.5H314.351V56.6337ZM418.714 131.551C399.574 131.551 388.638 124.123 385.903 109.267L402.855 104.619C403.493 107.9 405.088 110.588 407.64 112.685C410.192 114.69 413.883 115.692 418.714 115.692C422.45 115.692 425.321 115.1 427.326 113.915C429.423 112.73 430.471 110.999 430.471 108.72C430.471 106.624 429.514 104.983 427.6 103.799C425.686 102.614 422.405 101.611 417.757 100.791C407.367 99.0593 399.802 96.3707 395.063 92.7251C390.415 89.0795 388.091 83.7478 388.091 76.7301C388.091 69.9857 390.734 64.654 396.02 60.735C401.306 56.7249 408.506 54.7198 417.62 54.7198C435.301 54.7198 445.554 61.7376 448.38 75.7731L431.291 80.4212C429.833 73.8592 425.276 70.5781 417.62 70.5781C414.886 70.5781 412.653 71.125 410.921 72.2186C409.19 73.3123 408.324 74.6794 408.324 76.3199C408.324 78.325 409.281 79.9655 411.195 81.2415C413.2 82.4263 416.8 83.4744 421.995 84.3858C432.293 86.2997 439.63 89.0795 444.005 92.7251C448.471 96.2795 450.704 101.566 450.704 108.583C450.704 115.692 447.924 121.297 442.364 125.399C436.896 129.5 429.012 131.551 418.714 131.551ZM471.658 131.551C464.367 131.551 458.625 129.682 454.432 125.946C450.24 122.209 448.144 117.287 448.144 111.181C448.144 102.34 451.561 96.1884 458.397 92.7251C465.323 89.2618 475.713 87.5301 489.567 87.5301H494.215V85.3428C494.215 80.1478 493.212 76.3199 491.207 73.8592C489.202 71.3984 485.967 70.168 481.501 70.168C476.579 70.168 472.979 71.5351 470.701 74.2693C468.513 77.0035 467.42 80.3757 467.42 84.3858L450.604 80.0111C451.151 72.1731 454.25 66.0211 459.901 61.5553C465.551 56.9983 473.207 54.7198 482.868 54.7198C503.374 54.7198 513.628 64.654 513.628 84.5225V104.072C513.628 107.809 514.174 110.588 515.268 112.411C516.362 114.143 518.048 115.009 520.326 115.009C521.602 115.009 522.878 114.826 524.154 114.462L528.529 128.953C524.792 130.594 520.782 131.414 516.498 131.414C511.759 131.414 507.658 130.411 504.195 128.406C500.731 126.401 498.635 123.394 497.906 119.383V117.743H497.769C495.491 122.027 492.119 125.399 487.653 127.859C483.187 130.32 477.855 131.551 471.658 131.551ZM467.693 108.72C467.693 111.181 468.559 113.186 470.291 114.735C472.022 116.194 474.392 116.923 477.399 116.923C480.225 116.923 482.913 116.194 485.465 114.735C488.108 113.186 490.205 111.044 491.754 108.31C493.395 105.576 494.215 102.431 494.215 98.877V98.0568H491.07C482.777 98.0568 476.807 98.8315 473.161 100.381C469.516 101.839 467.693 104.619 467.693 108.72ZM529.375 34.6235H549.881V129.5H529.375V34.6235ZM577.981 131.551C570.69 131.551 564.948 129.682 560.756 125.946C556.564 122.209 554.467 117.287 554.467 111.181C554.467 102.34 557.885 96.1884 564.721 92.7251C571.647 89.2618 582.037 87.5301 595.89 87.5301H600.539V85.3428C600.539 80.1478 599.536 76.3199 597.531 73.8592C595.526 71.3984 592.29 70.168 587.825 70.168C582.903 70.168 579.303 71.5351 577.025 74.2693C574.837 77.0035 573.743 80.3757 573.743 84.3858L556.928 80.0111C557.475 72.1731 560.574 66.0211 566.224 61.5553C571.875 56.9983 579.531 54.7198 589.192 54.7198C609.698 54.7198 619.951 64.654 619.951 84.5225V104.072C619.951 107.809 620.498 110.588 621.592 112.411C622.686 114.143 624.372 115.009 626.65 115.009C627.926 115.009 629.202 114.826 630.478 114.462L634.853 128.953C631.116 130.594 627.106 131.414 622.822 131.414C618.083 131.414 613.982 130.411 610.518 128.406C607.055 126.401 604.959 123.394 604.23 119.383V117.743H604.093C601.815 122.027 598.442 125.399 593.977 127.859C589.511 130.32 584.179 131.551 577.981 131.551ZM574.017 108.72C574.017 111.181 574.883 113.186 576.614 114.735C578.346 116.194 580.716 116.923 583.723 116.923C586.549 116.923 589.237 116.194 591.789 114.735C594.432 113.186 596.528 111.044 598.078 108.31C599.718 105.576 600.539 102.431 600.539 98.877V98.0568H597.394C589.101 98.0568 583.131 98.8315 579.485 100.381C575.84 101.839 574.017 104.619 574.017 108.72Z"/>
</mask>
<path d="M155.435 82.0617L155.025 34.7602H193.167C205.562 34.7602 215.041 37.3577 221.603 42.5526C228.165 47.6565 231.446 55.4034 231.446 65.7933C231.446 86.8466 218.459 97.3732 192.484 97.3732H177.036L177.309 129.5H155.025L155.435 82.0617ZM193.441 80.1478C204.651 80.1478 210.256 75.4541 210.256 66.0667C210.256 61.6009 208.798 58.2287 205.881 55.9502C203.056 53.6717 198.909 52.5325 193.441 52.5325H177.036V80.1478H193.441ZM302.394 91.4947L302.531 129.5H282.024L282.298 119.383H282.024C279.928 123.029 277.012 125.946 273.275 128.133C269.538 130.32 265.346 131.414 260.698 131.414C252.677 131.414 246.571 129.044 242.378 124.305C238.277 119.475 236.227 112.047 236.227 102.021V91.4947L236.09 56.6337H256.596L256.46 91.4947V98.7403C256.46 103.662 257.508 107.399 259.604 109.951C261.791 112.502 264.799 113.778 268.627 113.778C272.637 113.778 275.872 112.183 278.333 108.994C280.885 105.804 282.161 101.52 282.161 96.1428V91.4947L282.024 56.6337H302.531L302.394 91.4947ZM314.351 56.6337H334.857V66.2034H335.131C339.961 58.5477 347.07 54.7198 356.457 54.7198C364.66 54.7198 370.812 57.0894 374.913 61.8287C379.106 66.568 381.202 73.9959 381.202 84.1124V129.5H360.695V87.2567C360.695 77.2313 356.685 72.2186 348.665 72.2186C344.29 72.2186 340.872 73.8136 338.412 77.0035C336.042 80.1022 334.857 84.3858 334.857 89.8542V129.5H314.351V56.6337ZM418.714 131.551C399.574 131.551 388.638 124.123 385.903 109.267L402.855 104.619C403.493 107.9 405.088 110.588 407.64 112.685C410.192 114.69 413.883 115.692 418.714 115.692C422.45 115.692 425.321 115.1 427.326 113.915C429.423 112.73 430.471 110.999 430.471 108.72C430.471 106.624 429.514 104.983 427.6 103.799C425.686 102.614 422.405 101.611 417.757 100.791C407.367 99.0593 399.802 96.3707 395.063 92.7251C390.415 89.0795 388.091 83.7478 388.091 76.7301C388.091 69.9857 390.734 64.654 396.02 60.735C401.306 56.7249 408.506 54.7198 417.62 54.7198C435.301 54.7198 445.554 61.7376 448.38 75.7731L431.291 80.4212C429.833 73.8592 425.276 70.5781 417.62 70.5781C414.886 70.5781 412.653 71.125 410.921 72.2186C409.19 73.3123 408.324 74.6794 408.324 76.3199C408.324 78.325 409.281 79.9655 411.195 81.2415C413.2 82.4263 416.8 83.4744 421.995 84.3858C432.293 86.2997 439.63 89.0795 444.005 92.7251C448.471 96.2795 450.704 101.566 450.704 108.583C450.704 115.692 447.924 121.297 442.364 125.399C436.896 129.5 429.012 131.551 418.714 131.551ZM471.658 131.551C464.367 131.551 458.625 129.682 454.432 125.946C450.24 122.209 448.144 117.287 448.144 111.181C448.144 102.34 451.561 96.1884 458.397 92.7251C465.323 89.2618 475.713 87.5301 489.567 87.5301H494.215V85.3428C494.215 80.1478 493.212 76.3199 491.207 73.8592C489.202 71.3984 485.967 70.168 481.501 70.168C476.579 70.168 472.979 71.5351 470.701 74.2693C468.513 77.0035 467.42 80.3757 467.42 84.3858L450.604 80.0111C451.151 72.1731 454.25 66.0211 459.901 61.5553C465.551 56.9983 473.207 54.7198 482.868 54.7198C503.374 54.7198 513.628 64.654 513.628 84.5225V104.072C513.628 107.809 514.174 110.588 515.268 112.411C516.362 114.143 518.048 115.009 520.326 115.009C521.602 115.009 522.878 114.826 524.154 114.462L528.529 128.953C524.792 130.594 520.782 131.414 516.498 131.414C511.759 131.414 507.658 130.411 504.195 128.406C500.731 126.401 498.635 123.394 497.906 119.383V117.743H497.769C495.491 122.027 492.119 125.399 487.653 127.859C483.187 130.32 477.855 131.551 471.658 131.551ZM467.693 108.72C467.693 111.181 468.559 113.186 470.291 114.735C472.022 116.194 474.392 116.923 477.399 116.923C480.225 116.923 482.913 116.194 485.465 114.735C488.108 113.186 490.205 111.044 491.754 108.31C493.395 105.576 494.215 102.431 494.215 98.877V98.0568H491.07C482.777 98.0568 476.807 98.8315 473.161 100.381C469.516 101.839 467.693 104.619 467.693 108.72ZM529.375 34.6235H549.881V129.5H529.375V34.6235ZM577.981 131.551C570.69 131.551 564.948 129.682 560.756 125.946C556.564 122.209 554.467 117.287 554.467 111.181C554.467 102.34 557.885 96.1884 564.721 92.7251C571.647 89.2618 582.037 87.5301 595.89 87.5301H600.539V85.3428C600.539 80.1478 599.536 76.3199 597.531 73.8592C595.526 71.3984 592.29 70.168 587.825 70.168C582.903 70.168 579.303 71.5351 577.025 74.2693C574.837 77.0035 573.743 80.3757 573.743 84.3858L556.928 80.0111C557.475 72.1731 560.574 66.0211 566.224 61.5553C571.875 56.9983 579.531 54.7198 589.192 54.7198C609.698 54.7198 619.951 64.654 619.951 84.5225V104.072C619.951 107.809 620.498 110.588 621.592 112.411C622.686 114.143 624.372 115.009 626.65 115.009C627.926 115.009 629.202 114.826 630.478 114.462L634.853 128.953C631.116 130.594 627.106 131.414 622.822 131.414C618.083 131.414 613.982 130.411 610.518 128.406C607.055 126.401 604.959 123.394 604.23 119.383V117.743H604.093C601.815 122.027 598.442 125.399 593.977 127.859C589.511 130.32 584.179 131.551 577.981 131.551ZM574.017 108.72C574.017 111.181 574.883 113.186 576.614 114.735C578.346 116.194 580.716 116.923 583.723 116.923C586.549 116.923 589.237 116.194 591.789 114.735C594.432 113.186 596.528 111.044 598.078 108.31C599.718 105.576 600.539 102.431 600.539 98.877V98.0568H597.394C589.101 98.0568 583.131 98.8315 579.485 100.381C575.84 101.839 574.017 104.619 574.017 108.72Z" fill="#38B8FF"/>
<path d="M155.435 82.0617L159.435 82.0963L159.436 82.0617L159.435 82.0271L155.435 82.0617ZM155.025 34.7602V30.7602H150.99L151.025 34.7949L155.025 34.7602ZM221.603 42.5526L219.12 45.6888L219.134 45.6995L219.147 45.7101L221.603 42.5526ZM177.036 97.3732V93.3732H173.001L173.036 97.4073L177.036 97.3732ZM177.309 129.5V133.5H181.343L181.309 129.466L177.309 129.5ZM155.025 129.5L151.025 129.465L150.991 133.5H155.025V129.5ZM205.881 55.9502L203.37 59.0638L203.394 59.0833L203.419 59.1023L205.881 55.9502ZM177.036 52.5325V48.5325H173.036V52.5325H177.036ZM177.036 80.1478H173.036V84.1478H177.036V80.1478ZM159.435 82.0271L159.025 34.7255L151.025 34.7949L151.436 82.0964L159.435 82.0271ZM155.025 38.7602H193.167V30.7602H155.025V38.7602ZM193.167 38.7602C205.078 38.7602 213.534 41.2663 219.12 45.6888L224.086 39.4165C216.548 33.449 206.047 30.7602 193.167 30.7602V38.7602ZM219.147 45.7101C224.495 49.8694 227.446 56.2979 227.446 65.7933H235.446C235.446 54.5088 231.835 45.4436 224.059 39.3952L219.147 45.7101ZM227.446 65.7933C227.446 75.4551 224.507 82.0586 219.187 86.3708C213.706 90.8133 205.034 93.3732 192.484 93.3732V101.373C205.908 101.373 216.718 98.6699 224.224 92.5857C231.891 86.3713 235.446 77.1848 235.446 65.7933H227.446ZM192.484 93.3732H177.036V101.373H192.484V93.3732ZM173.036 97.4073L173.309 129.534L181.309 129.466L181.035 97.3392L173.036 97.4073ZM177.309 125.5H155.025V133.5H177.309V125.5ZM159.025 129.535L159.435 82.0963L151.436 82.0272L151.025 129.465L159.025 129.535ZM193.441 84.1478C199.506 84.1478 204.801 82.8927 208.62 79.6943C212.576 76.382 214.256 71.5818 214.256 66.0667H206.256C206.256 69.939 205.134 72.1794 203.484 73.5608C201.698 75.056 198.585 76.1478 193.441 76.1478V84.1478ZM214.256 66.0667C214.256 60.653 212.434 55.9936 208.344 52.7981L203.419 59.1023C205.161 60.4638 206.256 62.5487 206.256 66.0667H214.256ZM208.392 52.8365C204.574 49.7573 199.38 48.5325 193.441 48.5325V56.5325C198.438 56.5325 201.538 57.5861 203.37 59.0638L208.392 52.8365ZM193.441 48.5325H177.036V56.5325H193.441V48.5325ZM173.036 52.5325V80.1478H181.036V52.5325H173.036ZM177.036 84.1478H193.441V76.1478H177.036V84.1478ZM302.394 91.4947L298.394 91.479L298.394 91.4941L298.394 91.5091L302.394 91.4947ZM302.531 129.5V133.5H306.545L306.531 129.486L302.531 129.5ZM282.024 129.5L278.026 129.392L277.915 133.5H282.024V129.5ZM282.298 119.383L286.296 119.492L286.407 115.383H282.298V119.383ZM282.024 119.383V115.383H279.71L278.557 117.39L282.024 119.383ZM242.378 124.305L239.329 126.894L239.356 126.925L239.382 126.955L242.378 124.305ZM236.227 91.4947H240.227V91.4869L240.226 91.479L236.227 91.4947ZM236.09 56.6337V52.6337H232.074L232.09 56.6494L236.09 56.6337ZM256.596 56.6337L260.596 56.6494L260.612 52.6337H256.596V56.6337ZM256.46 91.4947L252.46 91.479L252.46 91.4869V91.4947H256.46ZM259.604 109.951L256.513 112.489L256.54 112.522L256.567 112.554L259.604 109.951ZM278.333 108.994L275.21 106.495L275.188 106.522L275.166 106.55L278.333 108.994ZM282.161 91.4947H286.161V91.4869L286.161 91.479L282.161 91.4947ZM282.024 56.6337V52.6337H278.009L278.024 56.6494L282.024 56.6337ZM302.531 56.6337L306.531 56.6494L306.546 52.6337H302.531V56.6337ZM298.394 91.5091L298.531 129.514L306.531 129.486L306.394 91.4803L298.394 91.5091ZM302.531 125.5H282.024V133.5H302.531V125.5ZM286.023 129.608L286.296 119.492L278.299 119.275L278.026 129.392L286.023 129.608ZM282.298 115.383H282.024V123.383H282.298V115.383ZM278.557 117.39C276.818 120.413 274.408 122.834 271.254 124.681L275.296 131.585C279.615 129.057 283.038 125.645 285.492 121.377L278.557 117.39ZM271.254 124.681C268.175 126.483 264.689 127.414 260.698 127.414V135.414C266.002 135.414 270.901 134.157 275.296 131.585L271.254 124.681ZM260.698 127.414C253.494 127.414 248.614 125.317 245.374 121.655L239.382 126.955C244.528 132.772 251.86 135.414 260.698 135.414V127.414ZM245.428 121.716C242.209 117.926 240.227 111.62 240.227 102.021H232.227C232.227 112.474 234.345 121.023 239.329 126.894L245.428 121.716ZM240.227 102.021V91.4947H232.227V102.021H240.227ZM240.226 91.479L240.09 56.6181L232.09 56.6494L232.227 91.5104L240.226 91.479ZM236.09 60.6337H256.596V52.6337H236.09V60.6337ZM252.596 56.6181L252.46 91.479L260.46 91.5104L260.596 56.6494L252.596 56.6181ZM252.46 91.4947V98.7403H260.46V91.4947H252.46ZM252.46 98.7403C252.46 104.15 253.601 108.944 256.513 112.489L262.695 107.412C261.414 105.853 260.46 103.173 260.46 98.7403H252.46ZM256.567 112.554C259.624 116.121 263.812 117.778 268.627 117.778V109.778C265.786 109.778 263.958 108.884 262.641 107.347L256.567 112.554ZM268.627 117.778C273.884 117.778 278.286 115.603 281.5 111.437L275.166 106.55C273.458 108.764 271.39 109.778 268.627 109.778V117.778ZM281.457 111.492C284.733 107.396 286.161 102.139 286.161 96.1428H278.161C278.161 100.901 277.037 104.211 275.21 106.495L281.457 111.492ZM286.161 96.1428V91.4947H278.161V96.1428H286.161ZM286.161 91.479L286.024 56.6181L278.024 56.6494L278.161 91.5104L286.161 91.479ZM282.024 60.6337H302.531V52.6337H282.024V60.6337ZM298.531 56.6181L298.394 91.479L306.394 91.5104L306.531 56.6494L298.531 56.6181ZM314.351 56.6337V52.6337H310.351V56.6337H314.351ZM334.857 56.6337H338.857V52.6337H334.857V56.6337ZM334.857 66.2034H330.857V70.2034H334.857V66.2034ZM335.131 66.2034V70.2034H337.336L338.514 68.3379L335.131 66.2034ZM374.913 61.8287L371.888 64.4462L371.903 64.4627L371.917 64.479L374.913 61.8287ZM381.202 129.5V133.5H385.202V129.5H381.202ZM360.695 129.5H356.695V133.5H360.695V129.5ZM338.412 77.0035L335.245 74.5603L335.239 74.567L335.234 74.5737L338.412 77.0035ZM334.857 129.5V133.5H338.857V129.5H334.857ZM314.351 129.5H310.351V133.5H314.351V129.5ZM314.351 60.6337H334.857V52.6337H314.351V60.6337ZM330.857 56.6337V66.2034H338.857V56.6337H330.857ZM334.857 70.2034H335.131V62.2034H334.857V70.2034ZM338.514 68.3379C342.579 61.8945 348.381 58.7198 356.457 58.7198V50.7198C345.758 50.7198 337.343 55.2008 331.748 64.069L338.514 68.3379ZM356.457 58.7198C363.88 58.7198 368.765 60.8374 371.888 64.4462L377.938 59.2112C372.858 53.3415 365.439 50.7198 356.457 50.7198V58.7198ZM371.917 64.479C375.172 68.1582 377.202 74.4193 377.202 84.1124H385.202C385.202 73.5725 383.039 64.9777 377.909 59.1784L371.917 64.479ZM377.202 84.1124V129.5H385.202V84.1124H377.202ZM381.202 125.5H360.695V133.5H381.202V125.5ZM364.695 129.5V87.2567H356.695V129.5H364.695ZM364.695 87.2567C364.695 81.8167 363.625 76.9964 360.811 73.4794C357.861 69.7919 353.558 68.2186 348.665 68.2186V76.2186C351.792 76.2186 353.504 77.1517 354.564 78.4769C355.761 79.9726 356.695 82.6714 356.695 87.2567H364.695ZM348.665 68.2186C343.173 68.2186 338.535 70.2954 335.245 74.5603L341.579 79.4467C343.21 77.3318 345.407 76.2186 348.665 76.2186V68.2186ZM335.234 74.5737C332.154 78.6019 330.857 83.8525 330.857 89.8542H338.857C338.857 84.9191 339.93 81.6026 341.589 79.4333L335.234 74.5737ZM330.857 89.8542V129.5H338.857V89.8542H330.857ZM334.857 125.5H314.351V133.5H334.857V125.5ZM318.351 129.5V56.6337H310.351V129.5H318.351ZM385.903 109.267L384.846 105.409L381.305 106.38L381.969 109.991L385.903 109.267ZM402.855 104.619L406.782 103.855L405.958 99.6204L401.798 100.761L402.855 104.619ZM407.64 112.685L405.101 115.776L405.135 115.803L405.169 115.83L407.64 112.685ZM427.326 113.915L425.358 110.433L425.325 110.452L425.291 110.471L427.326 113.915ZM427.6 103.799L429.705 100.398L429.705 100.398L427.6 103.799ZM417.757 100.791L418.452 96.8518L418.433 96.8485L418.414 96.8454L417.757 100.791ZM395.063 92.7251L392.594 95.8725L392.609 95.8841L392.624 95.8956L395.063 92.7251ZM396.02 60.735L398.402 63.9483L398.42 63.9351L398.437 63.9218L396.02 60.735ZM448.38 75.7731L449.429 79.6329L453.039 78.651L452.301 74.9837L448.38 75.7731ZM431.291 80.4212L427.386 81.2889L428.296 85.3813L432.341 84.281L431.291 80.4212ZM410.921 72.2186L408.785 68.8367L408.785 68.8367L410.921 72.2186ZM411.195 81.2415L408.976 84.5697L409.066 84.6299L409.16 84.6852L411.195 81.2415ZM421.995 84.3858L422.726 80.4531L422.706 80.4495L422.686 80.446L421.995 84.3858ZM444.005 92.7251L441.444 95.798L441.479 95.8268L441.514 95.8548L444.005 92.7251ZM442.364 125.399L439.99 122.18L439.977 122.189L439.964 122.199L442.364 125.399ZM418.714 127.551C409.603 127.551 402.974 125.774 398.404 122.671C393.949 119.645 391.041 115.082 389.837 108.543L381.969 109.991C383.5 118.308 387.427 124.886 393.909 129.289C400.276 133.613 408.684 135.551 418.714 135.551V127.551ZM386.961 113.125L403.913 108.476L401.798 100.761L384.846 105.409L386.961 113.125ZM398.929 105.382C399.742 109.565 401.821 113.081 405.101 115.776L410.179 109.594C408.356 108.096 407.244 106.235 406.782 103.855L398.929 105.382ZM405.169 115.83C408.697 118.602 413.407 119.692 418.714 119.692V111.692C414.36 111.692 411.688 110.778 410.111 109.539L405.169 115.83ZM418.714 119.692C422.776 119.692 426.473 119.065 429.361 117.359L425.291 110.471C424.169 111.135 422.125 111.692 418.714 111.692V119.692ZM429.295 117.397C432.558 115.553 434.471 112.539 434.471 108.72H426.471C426.471 109.458 426.287 109.908 425.358 110.433L429.295 117.397ZM434.471 108.72C434.471 105.12 432.692 102.247 429.705 100.398L425.494 107.2C426.335 107.72 426.471 108.128 426.471 108.72H434.471ZM429.705 100.398C427.102 98.7857 423.173 97.6849 418.452 96.8518L417.062 104.73C421.637 105.538 424.27 106.442 425.494 107.2L429.705 100.398ZM418.414 96.8454C408.248 95.151 401.461 92.6003 397.502 89.5546L392.624 95.8956C398.143 100.141 406.486 102.968 417.099 104.737L418.414 96.8454ZM397.531 89.5777C394.037 86.8367 392.091 82.7776 392.091 76.7301H384.091C384.091 84.7181 386.793 91.3223 392.594 95.8725L397.531 89.5777ZM392.091 76.7301C392.091 71.2153 394.163 67.0909 398.402 63.9483L393.638 57.5218C387.304 62.2172 384.091 68.7561 384.091 76.7301H392.091ZM398.437 63.9218C402.81 60.6049 409.058 58.7198 417.62 58.7198V50.7198C407.954 50.7198 399.802 52.8448 393.602 57.5483L398.437 63.9218ZM417.62 58.7198C425.982 58.7198 432.077 60.3858 436.311 63.284C440.446 66.1141 443.217 70.3985 444.458 76.5625L452.301 74.9837C450.716 67.1122 446.948 60.87 440.83 56.6823C434.811 52.5627 426.939 50.7198 417.62 50.7198V58.7198ZM447.33 71.9133L430.241 76.5615L432.341 84.281L449.429 79.6329L447.33 71.9133ZM435.196 79.5535C434.298 75.5131 432.343 72.1157 429.117 69.7928C425.95 67.5124 421.988 66.5781 417.62 66.5781V74.5781C420.908 74.5781 423.052 75.2844 424.442 76.285C425.773 77.2431 426.826 78.7673 427.386 81.2889L435.196 79.5535ZM417.62 66.5781C414.376 66.5781 411.337 67.2251 408.785 68.8367L413.057 75.6006C413.969 75.0248 415.395 74.5781 417.62 74.5781V66.5781ZM408.785 68.8367C406.223 70.4546 404.324 72.9572 404.324 76.3199H412.324C412.324 76.2912 412.326 76.2729 412.327 76.2631C412.328 76.2535 412.33 76.2489 412.33 76.2474C412.33 76.2459 412.331 76.2433 412.333 76.2384C412.336 76.2333 412.341 76.2221 412.352 76.2044C412.395 76.1366 412.564 75.9124 413.057 75.6006L408.785 68.8367ZM404.324 76.3199C404.324 79.8766 406.14 82.6791 408.976 84.5697L413.413 77.9133C412.421 77.2519 412.324 76.7734 412.324 76.3199H404.324ZM409.16 84.6852C411.844 86.2713 416.083 87.4097 421.303 88.3256L422.686 80.446C417.517 79.5391 414.555 78.5813 413.23 77.7978L409.16 84.6852ZM421.264 88.3185C431.368 90.1962 437.874 92.8226 441.444 95.798L446.566 89.6522C441.387 85.3365 433.219 82.4033 422.726 80.4531L421.264 88.3185ZM441.514 95.8548C444.808 98.477 446.704 102.476 446.704 108.583H454.704C454.704 100.656 452.133 94.0821 446.496 89.5954L441.514 95.8548ZM446.704 108.583C446.704 114.466 444.493 118.858 439.99 122.18L444.739 128.618C451.355 123.737 454.704 116.919 454.704 108.583H446.704ZM439.964 122.199C435.46 125.577 428.563 127.551 418.714 127.551V135.551C429.462 135.551 438.332 133.423 444.764 128.599L439.964 122.199ZM458.397 92.7251L456.608 89.1474L456.598 89.1521L456.589 89.157L458.397 92.7251ZM494.215 87.5301V91.5301H498.215V87.5301H494.215ZM491.207 73.8592L494.308 71.3325L494.308 71.3325L491.207 73.8592ZM470.701 74.2693L467.628 71.7086L467.602 71.7393L467.577 71.7705L470.701 74.2693ZM467.42 84.3858L466.413 88.2569L471.42 89.5596V84.3858H467.42ZM450.604 80.0111L446.614 79.7327L446.383 83.046L449.597 83.8822L450.604 80.0111ZM459.901 61.5553L462.381 64.6935L462.396 64.6813L462.412 64.6689L459.901 61.5553ZM515.268 112.411L511.838 114.469L511.862 114.509L511.886 114.547L515.268 112.411ZM524.154 114.462L527.984 113.306L526.845 109.533L523.055 110.616L524.154 114.462ZM528.529 128.953L530.137 132.616L533.383 131.191L532.358 127.797L528.529 128.953ZM504.195 128.406L502.19 131.868L502.19 131.868L504.195 128.406ZM497.906 119.383H493.906V119.744L493.97 120.099L497.906 119.383ZM497.906 117.743H501.906V113.743H497.906V117.743ZM497.769 117.743V113.743H495.366L494.238 115.865L497.769 117.743ZM487.653 127.859L489.583 131.363L489.583 131.363L487.653 127.859ZM470.291 114.735L467.623 117.716L467.668 117.756L467.714 117.795L470.291 114.735ZM485.465 114.735L487.45 118.208L487.469 118.197L487.488 118.186L485.465 114.735ZM491.754 108.31L488.324 106.252L488.298 106.295L488.274 106.338L491.754 108.31ZM494.215 98.0568H498.215V94.0568H494.215V98.0568ZM473.161 100.381L474.647 104.095L474.687 104.079L474.726 104.062L473.161 100.381ZM471.658 127.551C465.048 127.551 460.357 125.868 457.094 122.959L451.771 128.932C456.893 133.497 463.685 135.551 471.658 135.551V127.551ZM457.094 122.959C453.833 120.053 452.144 116.258 452.144 111.181H444.144C444.144 118.316 446.647 124.365 451.771 128.932L457.094 122.959ZM452.144 111.181C452.144 107.269 452.899 104.227 454.204 101.879C455.49 99.5637 457.433 97.6974 460.205 96.2932L456.589 89.157C452.525 91.2161 449.342 94.1575 447.21 97.994C445.097 101.798 444.144 106.252 444.144 111.181H452.144ZM460.186 96.3028C466.276 93.2574 475.918 91.5301 489.567 91.5301V83.5301C475.509 83.5301 464.37 85.2662 456.608 89.1474L460.186 96.3028ZM489.567 91.5301H494.215V83.5301H489.567V91.5301ZM498.215 87.5301V85.3428H490.215V87.5301H498.215ZM498.215 85.3428C498.215 79.7702 497.164 74.8373 494.308 71.3325L488.106 76.3859C489.261 77.8026 490.215 80.5254 490.215 85.3428H498.215ZM494.308 71.3325C491.27 67.6039 486.657 66.168 481.501 66.168V74.168C485.277 74.168 487.134 75.1929 488.106 76.3859L494.308 71.3325ZM481.501 66.168C475.869 66.168 470.927 67.7501 467.628 71.7086L473.774 76.83C475.032 75.32 477.289 74.168 481.501 74.168V66.168ZM467.577 71.7705C464.741 75.3152 463.42 79.6061 463.42 84.3858H471.42C471.42 81.1452 472.285 78.6918 473.824 76.7681L467.577 71.7705ZM468.427 80.5147L451.612 76.14L449.597 83.8822L466.413 88.2569L468.427 80.5147ZM454.595 80.2895C455.071 73.4606 457.7 68.3932 462.381 64.6935L457.42 58.4171C450.8 63.6491 447.231 70.8855 446.614 79.7327L454.595 80.2895ZM462.412 64.6689C467.146 60.8506 473.818 58.7198 482.868 58.7198V50.7198C472.596 50.7198 463.956 53.146 457.39 58.4416L462.412 64.6689ZM482.868 58.7198C492.536 58.7198 499.046 61.0629 503.154 65.0432C507.239 69.0009 509.628 75.2375 509.628 84.5225H517.628C517.628 73.939 514.89 65.2743 508.721 59.2977C502.576 53.3439 493.707 50.7198 482.868 50.7198V58.7198ZM509.628 84.5225V104.072H517.628V84.5225H509.628ZM509.628 104.072C509.628 108.056 510.185 111.714 511.838 114.469L518.698 110.353C518.164 109.463 517.628 107.561 517.628 104.072H509.628ZM511.886 114.547C513.806 117.586 516.859 119.009 520.326 119.009V111.009C519.237 111.009 518.918 110.7 518.65 110.275L511.886 114.547ZM520.326 119.009C521.989 119.009 523.634 118.771 525.253 118.308L523.055 110.616C522.122 110.882 521.216 111.009 520.326 111.009V119.009ZM520.325 115.618L524.7 130.109L532.358 127.797L527.984 113.306L520.325 115.618ZM526.921 125.291C523.716 126.698 520.256 127.414 516.498 127.414V135.414C521.308 135.414 525.868 134.49 530.137 132.616L526.921 125.291ZM516.498 127.414C512.333 127.414 508.949 126.537 506.199 124.945L502.19 131.868C506.367 134.286 511.186 135.414 516.498 135.414V127.414ZM506.199 124.945C503.772 123.54 502.365 121.548 501.841 118.668L493.97 120.099C494.905 125.239 497.69 129.263 502.19 131.868L506.199 124.945ZM501.906 119.383V117.743H493.906V119.383H501.906ZM497.906 113.743H497.769V121.743H497.906V113.743ZM494.238 115.865C492.343 119.427 489.544 122.25 485.722 124.356L489.583 131.363C494.693 128.547 498.639 124.626 501.301 119.621L494.238 115.865ZM485.722 124.356C481.962 126.428 477.325 127.551 471.658 127.551V135.551C478.386 135.551 484.411 134.213 489.583 131.363L485.722 124.356ZM463.693 108.72C463.693 112.243 464.989 115.359 467.623 117.716L472.958 111.754C472.129 111.013 471.693 110.119 471.693 108.72H463.693ZM467.714 117.795C470.374 120.035 473.762 120.923 477.399 120.923V112.923C475.022 112.923 473.67 112.352 472.867 111.676L467.714 117.795ZM477.399 120.923C480.95 120.923 484.319 119.997 487.45 118.208L483.481 111.262C481.508 112.39 479.5 112.923 477.399 112.923V120.923ZM487.488 118.186C490.755 116.271 493.347 113.612 495.234 110.282L488.274 106.338C487.062 108.476 485.462 110.101 483.442 111.285L487.488 118.186ZM495.184 110.368C497.239 106.943 498.215 103.071 498.215 98.877H490.215C490.215 101.792 489.55 104.209 488.324 106.252L495.184 110.368ZM498.215 98.877V98.0568H490.215V98.877H498.215ZM494.215 94.0568H491.07V102.057H494.215V94.0568ZM491.07 94.0568C482.699 94.0568 476.034 94.8139 471.597 96.6995L474.726 104.062C477.581 102.849 482.854 102.057 491.07 102.057V94.0568ZM471.676 96.6669C469.234 97.6439 467.153 99.1735 465.715 101.366C464.286 103.545 463.693 106.073 463.693 108.72H471.693C471.693 107.266 472.012 106.353 472.405 105.753C472.79 105.165 473.444 104.576 474.647 104.095L471.676 96.6669ZM529.375 34.6235V30.6235H525.375V34.6235H529.375ZM549.881 34.6235H553.881V30.6235H549.881V34.6235ZM549.881 129.5V133.5H553.881V129.5H549.881ZM529.375 129.5H525.375V133.5H529.375V129.5ZM529.375 38.6235H549.881V30.6235H529.375V38.6235ZM545.881 34.6235V129.5H553.881V34.6235H545.881ZM549.881 125.5H529.375V133.5H549.881V125.5ZM533.375 129.5V34.6235H525.375V129.5H533.375ZM564.721 92.7251L562.932 89.1474L562.922 89.1521L562.913 89.157L564.721 92.7251ZM600.539 87.5301V91.5301H604.539V87.5301H600.539ZM597.531 73.8592L600.632 71.3325L600.632 71.3325L597.531 73.8592ZM577.025 74.2693L573.952 71.7086L573.926 71.7393L573.901 71.7705L577.025 74.2693ZM573.743 84.3858L572.736 88.2569L577.743 89.5596V84.3858H573.743ZM556.928 80.0111L552.938 79.7327L552.707 83.046L555.921 83.8822L556.928 80.0111ZM566.224 61.5553L568.705 64.6935L568.72 64.6813L568.735 64.6689L566.224 61.5553ZM621.592 112.411L618.162 114.469L618.185 114.509L618.21 114.547L621.592 112.411ZM630.478 114.462L634.307 113.306L633.168 109.533L629.379 110.616L630.478 114.462ZM634.853 128.953L636.461 132.616L639.706 131.191L638.682 127.797L634.853 128.953ZM610.518 128.406L608.514 131.868L608.514 131.868L610.518 128.406ZM604.23 119.383H600.23V119.744L600.294 120.099L604.23 119.383ZM604.23 117.743H608.23V113.743H604.23V117.743ZM604.093 117.743V113.743H601.69L600.562 115.865L604.093 117.743ZM593.977 127.859L595.907 131.363L595.907 131.363L593.977 127.859ZM576.614 114.735L573.947 117.716L573.992 117.756L574.038 117.795L576.614 114.735ZM591.789 114.735L593.774 118.208L593.793 118.197L593.812 118.186L591.789 114.735ZM598.078 108.31L594.648 106.252L594.622 106.295L594.598 106.338L598.078 108.31ZM600.539 98.0568H604.539V94.0568H600.539V98.0568ZM579.485 100.381L580.971 104.095L581.011 104.079L581.05 104.062L579.485 100.381ZM577.981 127.551C571.372 127.551 566.68 125.868 563.418 122.959L558.095 128.932C563.216 133.497 570.009 135.551 577.981 135.551V127.551ZM563.418 122.959C560.157 120.053 558.467 116.258 558.467 111.181H550.467C550.467 118.316 552.971 124.365 558.095 128.932L563.418 122.959ZM558.467 111.181C558.467 107.269 559.223 104.227 560.527 101.879C561.814 99.5637 563.757 97.6974 566.528 96.2932L562.913 89.157C558.849 91.2161 555.665 94.1575 553.534 97.994C551.421 101.798 550.467 106.252 550.467 111.181H558.467ZM566.509 96.3028C572.6 93.2574 582.241 91.5301 595.89 91.5301V83.5301C581.833 83.5301 570.694 85.2662 562.932 89.1474L566.509 96.3028ZM595.89 91.5301H600.539V83.5301H595.89V91.5301ZM604.539 87.5301V85.3428H596.539V87.5301H604.539ZM604.539 85.3428C604.539 79.7702 603.488 74.8373 600.632 71.3325L594.43 76.3859C595.584 77.8026 596.539 80.5254 596.539 85.3428H604.539ZM600.632 71.3325C597.594 67.6039 592.98 66.168 587.825 66.168V74.168C591.601 74.168 593.458 75.1929 594.43 76.3859L600.632 71.3325ZM587.825 66.168C582.193 66.168 577.25 67.7501 573.952 71.7086L580.097 76.83C581.356 75.32 583.613 74.168 587.825 74.168V66.168ZM573.901 71.7705C571.065 75.3152 569.743 79.6061 569.743 84.3858H577.743C577.743 81.1452 578.609 78.6918 580.148 76.7681L573.901 71.7705ZM574.751 80.5147L557.935 76.14L555.921 83.8822L572.736 88.2569L574.751 80.5147ZM560.918 80.2895C561.395 73.4606 564.023 68.3932 568.705 64.6935L563.744 58.4171C557.124 63.6491 553.555 70.8855 552.938 79.7327L560.918 80.2895ZM568.735 64.6689C573.47 60.8506 580.141 58.7198 589.192 58.7198V50.7198C578.92 50.7198 570.28 53.146 563.713 58.4416L568.735 64.6689ZM589.192 58.7198C598.859 58.7198 605.37 61.0629 609.478 65.0432C613.563 69.0009 615.951 75.2375 615.951 84.5225H623.951C623.951 73.939 621.213 65.2743 615.045 59.2977C608.9 53.3439 600.03 50.7198 589.192 50.7198V58.7198ZM615.951 84.5225V104.072H623.951V84.5225H615.951ZM615.951 104.072C615.951 108.056 616.509 111.714 618.162 114.469L625.022 110.353C624.488 109.463 623.951 107.561 623.951 104.072H615.951ZM618.21 114.547C620.129 117.586 623.183 119.009 626.65 119.009V111.009C625.561 111.009 625.242 110.7 624.974 110.275L618.21 114.547ZM626.65 119.009C628.312 119.009 629.958 118.771 631.577 118.308L629.379 110.616C628.446 110.882 627.54 111.009 626.65 111.009V119.009ZM626.649 115.618L631.023 130.109L638.682 127.797L634.307 113.306L626.649 115.618ZM633.245 125.291C630.04 126.698 626.58 127.414 622.822 127.414V135.414C627.631 135.414 632.192 134.49 636.461 132.616L633.245 125.291ZM622.822 127.414C618.656 127.414 615.273 126.537 612.523 124.945L608.514 131.868C612.69 134.286 617.51 135.414 622.822 135.414V127.414ZM612.523 124.945C610.096 123.54 608.689 121.548 608.165 118.668L600.294 120.099C601.229 125.239 604.014 129.263 608.514 131.868L612.523 124.945ZM608.23 119.383V117.743H600.23V119.383H608.23ZM604.23 113.743H604.093V121.743H604.23V113.743ZM600.562 115.865C598.667 119.427 595.868 122.25 592.046 124.356L595.907 131.363C601.016 128.547 604.962 124.626 607.625 119.621L600.562 115.865ZM592.046 124.356C588.286 126.428 583.648 127.551 577.981 127.551V135.551C584.71 135.551 590.735 134.213 595.907 131.363L592.046 124.356ZM570.017 108.72C570.017 112.243 571.312 115.359 573.947 117.716L579.282 111.754C578.453 111.013 578.017 110.119 578.017 108.72H570.017ZM574.038 117.795C576.698 120.035 580.085 120.923 583.723 120.923V112.923C581.346 112.923 579.994 112.352 579.191 111.676L574.038 117.795ZM583.723 120.923C587.273 120.923 590.643 119.997 593.774 118.208L589.805 111.262C587.832 112.39 585.824 112.923 583.723 112.923V120.923ZM593.812 118.186C597.079 116.271 599.671 113.612 601.558 110.282L594.598 106.338C593.386 108.476 591.786 110.101 589.766 111.285L593.812 118.186ZM601.508 110.368C603.563 106.943 604.539 103.071 604.539 98.877H596.539C596.539 101.792 595.874 104.209 594.648 106.252L601.508 110.368ZM604.539 98.877V98.0568H596.539V98.877H604.539ZM600.539 94.0568H597.394V102.057H600.539V94.0568ZM597.394 94.0568C589.023 94.0568 582.357 94.8139 577.921 96.6995L581.05 104.062C583.904 102.849 589.178 102.057 597.394 102.057V94.0568ZM578 96.6669C575.557 97.6439 573.477 99.1735 572.039 101.366C570.61 103.545 570.017 106.073 570.017 108.72H578.017C578.017 107.266 578.335 106.353 578.729 105.753C579.114 105.165 579.768 104.576 580.971 104.095L578 96.6669Z" fill="#1F1F1F" mask="url(#path-2-outside-1_273_138)"/>
</svg>
