<svg width="1561" height="329" viewBox="0 0 1561 329" fill="none" xmlns="http://www.w3.org/2000/svg">
<path d="M0.957599 321C22.9007 222.795 22.9007 99.0506 1.31732 0.846078H129.379C328.666 1.2058 318.593 209.126 129.379 209.486H88.0107C90.169 248.336 95.2052 286.107 102.759 321H0.957599ZM86.9315 141.858C86.9315 163.081 86.5718 172.074 87.2912 196.536H122.184C169.668 196.536 217.151 130.706 192.331 58.0421C184.057 33.2212 168.229 12.717 140.53 12.717C88.7301 12.717 86.9315 103.367 86.9315 141.858ZM296.291 297.618C277.225 244.739 329.025 192.579 278.304 97.6117H372.912C388.38 148.692 345.573 235.386 353.127 283.229C355.285 298.697 364.998 308.05 376.509 308.05C404.567 308.05 444.497 252.293 418.956 97.6117H513.564C491.98 185.744 491.98 232.868 513.564 321H418.956C424.712 297.978 428.669 277.473 431.547 258.408C415.719 319.201 373.991 328.194 341.975 328.194C321.831 328.194 303.125 316.683 296.291 297.618ZM533.348 97.6117H627.956C614.286 152.649 609.25 191.5 612.488 234.666C616.804 136.462 668.245 90.4172 708.174 90.4172C727.239 90.4172 743.427 100.849 750.621 120.994C769.327 173.873 717.887 226.033 768.608 321H674C658.532 269.919 700.98 183.226 693.785 135.383C691.986 123.512 686.231 117.756 679.036 117.756C653.496 117.756 606.732 190.061 627.956 321H533.348C554.572 232.868 554.572 185.744 533.348 97.6117ZM788.392 284.668C772.924 257.689 785.155 233.227 811.774 233.227C825.084 233.227 841.631 239.343 860.337 254.091C840.193 268.84 841.991 292.942 860.337 307.69C867.891 313.806 875.805 316.683 883.719 316.683C913.576 316.683 938.037 276.754 898.468 249.415C881.92 237.904 857.819 228.911 836.955 217.4C781.198 186.463 776.521 124.951 840.193 100.13C858.179 93.295 879.402 89.6978 899.547 89.6978C937.678 89.6978 972.571 101.928 976.168 126.03C979.046 144.376 964.297 164.161 933.361 167.758C900.626 171.355 884.079 145.815 907.461 126.03C917.533 117.756 913.936 101.209 887.676 100.849C871.488 100.849 829.041 145.455 875.805 164.88C918.612 182.866 986.96 194.377 986.96 254.811C986.96 281.79 969.333 303.733 945.951 315.604C929.404 323.878 908.18 328.194 886.237 328.194C846.668 328.194 805.659 314.165 788.392 284.668ZM1120.42 288.625C1107.11 315.244 1081.57 328.554 1057.11 328.554C1021.85 328.554 988.399 301.215 996.313 247.257C1003.15 199.413 1049.19 168.477 1092.72 168.477C1110.34 168.477 1127.61 173.513 1141.64 184.665C1148.12 171.355 1152.79 151.211 1146.32 129.267C1140.92 111.281 1127.61 101.209 1117.18 101.209C1109.63 101.209 1103.51 106.245 1102.79 116.677C1099.91 152.649 1078.33 161.642 1060.7 163.801C1027.97 167.398 1012.86 139.699 1036.24 119.555C1058.18 100.13 1088.4 89.6978 1116.82 89.6978C1165.74 89.6978 1209.99 120.634 1199.56 188.622C1194.16 223.875 1186.97 262.725 1218.26 321H1123.65C1120.42 309.849 1119.7 299.417 1120.42 288.625ZM1069.7 237.184C1060.34 274.596 1072.21 298.697 1088.4 298.697C1104.95 298.697 1125.81 272.797 1131.93 209.126C1131.93 192.579 1124.37 185.025 1114.66 185.025C1099.19 185.025 1077.97 203.73 1069.7 237.184ZM1234.81 321C1256.03 232.868 1256.03 88.9783 1234.81 0.846078H1329.42C1307.83 88.9783 1307.83 232.868 1329.42 321H1234.81ZM1462.51 288.625C1449.2 315.244 1423.66 328.554 1399.2 328.554C1363.95 328.554 1330.5 301.215 1338.41 247.257C1345.24 199.413 1391.29 168.477 1434.82 168.477C1452.44 168.477 1469.71 173.513 1483.74 184.665C1490.21 171.355 1494.89 151.211 1488.41 129.267C1483.02 111.281 1469.71 101.209 1459.28 101.209C1451.72 101.209 1445.61 106.245 1444.89 116.677C1442.01 152.649 1420.43 161.642 1402.8 163.801C1370.07 167.398 1354.96 139.699 1378.34 119.555C1400.28 100.13 1430.5 89.6978 1458.92 89.6978C1507.84 89.6978 1552.09 120.634 1541.65 188.622C1536.26 223.875 1529.06 262.725 1560.36 321H1465.75C1462.51 309.849 1461.79 299.417 1462.51 288.625ZM1411.79 237.184C1402.44 274.596 1414.31 298.697 1430.5 298.697C1447.05 298.697 1467.91 272.797 1474.03 209.126C1474.03 192.579 1466.47 185.025 1456.76 185.025C1441.29 185.025 1420.07 203.73 1411.79 237.184Z" fill="#F8B4E3"/>
<path d="M0.957599 321L-1.9702 320.346L-2.78671 324H0.957599V321ZM1.31732 0.846078V-2.15392H-2.41362L-1.61275 1.49005L1.31732 0.846078ZM129.379 0.846078L129.384 -2.15392H129.379V0.846078ZM129.379 209.486L129.379 212.486L129.385 212.486L129.379 209.486ZM88.0107 209.486V206.486H84.8394L85.0153 209.652L88.0107 209.486ZM102.759 321V324H106.478L105.691 320.365L102.759 321ZM87.2912 196.536L84.2925 196.624L84.3782 199.536H87.2912V196.536ZM192.331 58.0421L189.484 58.9908L189.488 59.0013L189.492 59.0119L192.331 58.0421ZM3.8854 321.654C25.9249 223.019 25.924 98.8306 4.24739 0.202106L-1.61275 1.49005C19.8775 99.2706 19.8766 222.572 -1.9702 320.346L3.8854 321.654ZM1.31732 3.84608H129.379V-2.15392H1.31732V3.84608ZM129.373 3.84607C178.691 3.93509 214.707 16.8628 238.173 35.878C261.615 54.8744 272.674 80.04 272.068 105.093C270.861 155.011 222.938 206.308 129.373 206.486L129.385 212.486C225.035 212.304 276.755 159.461 278.066 105.238C278.719 78.2218 266.756 51.3174 241.95 31.2164C217.168 11.1342 179.711 -2.06308 129.384 -2.15392L129.373 3.84607ZM129.379 206.486H88.0107V212.486H129.379V206.486ZM85.0153 209.652C87.1818 248.649 92.2375 286.577 99.8273 321.635L105.691 320.365C98.1728 285.636 93.1562 248.022 91.0061 209.319L85.0153 209.652ZM102.759 318H0.957599V324H102.759V318ZM83.9315 141.858C83.9315 163.023 83.5714 172.104 84.2925 196.624L90.2899 196.447C89.5722 172.045 89.9315 163.14 89.9315 141.858H83.9315ZM87.2912 199.536H122.184V193.536H87.2912V199.536ZM122.184 199.536C147.316 199.536 171.912 182.194 186.972 156.035C202.091 129.772 207.869 94.2513 195.169 57.0724L189.492 59.0119C201.613 94.4971 196.059 128.224 181.772 153.041C167.424 177.963 144.537 193.536 122.184 193.536V199.536ZM195.177 57.0934C186.747 31.8048 170.17 9.71695 140.53 9.71695V15.717C166.288 15.717 181.367 34.6375 189.484 58.9908L195.177 57.0934ZM140.53 9.71695C126.555 9.71695 115.919 15.8898 107.981 25.5816C100.129 35.1685 94.9088 48.1865 91.3968 62.1202C84.3705 89.9972 83.9315 122.626 83.9315 141.858H89.9315C89.9315 122.599 90.3918 90.6574 97.2149 63.5866C100.628 50.0464 105.569 37.9962 112.623 29.3834C119.591 20.8754 128.606 15.717 140.53 15.717V9.71695ZM296.291 297.618L299.115 296.606L299.113 296.6L296.291 297.618ZM278.304 97.6117V94.6117H273.301L275.658 99.025L278.304 97.6117ZM372.912 97.6117L375.783 96.7422L375.138 94.6117H372.912V97.6117ZM353.127 283.229L356.098 282.814L356.094 282.788L356.09 282.761L353.127 283.229ZM418.956 97.6117V94.6117H415.42L415.996 98.1004L418.956 97.6117ZM513.564 97.6117L516.477 98.3253L517.387 94.6117H513.564V97.6117ZM513.564 321V324H517.387L516.477 320.286L513.564 321ZM418.956 321L416.046 320.272L415.114 324H418.956V321ZM431.547 258.408L434.513 258.856L428.643 257.652L431.547 258.408ZM299.113 296.6C294.557 283.965 294.195 271.29 295.555 257.712C296.236 250.913 297.342 243.934 298.555 236.628C299.763 229.347 301.077 221.735 302.142 213.796C306.426 181.85 306.689 144.39 280.951 96.1984L275.658 99.025C300.64 145.8 300.365 181.904 296.195 212.999C295.146 220.82 293.853 228.312 292.636 235.646C291.423 242.955 290.287 250.103 289.585 257.114C288.179 271.157 288.491 284.831 293.468 298.635L299.113 296.6ZM278.304 100.612H372.912V94.6117H278.304V100.612ZM370.04 98.4812C373.74 110.697 374.002 125.233 372.301 141.117C370.602 156.98 366.974 173.947 363.063 190.962C359.167 207.912 354.978 224.955 352.251 240.714C349.527 256.453 348.196 271.237 350.164 283.697L356.09 282.761C354.281 271.3 355.468 257.306 358.163 241.737C360.853 226.189 364.983 209.395 368.911 192.306C372.824 175.283 376.526 158.009 378.267 141.756C380.005 125.523 379.818 110.067 375.783 96.7422L370.04 98.4812ZM350.156 283.644C352.455 300.124 363.071 311.05 376.509 311.05V305.05C366.924 305.05 358.115 297.27 356.098 282.814L350.156 283.644ZM376.509 311.05C392.611 311.05 410.296 295.336 420.698 261.723C431.184 227.84 434.728 174.717 421.916 97.123L415.996 98.1004C428.725 175.188 425.075 227.284 414.966 259.949C404.774 292.885 388.465 305.05 376.509 305.05V311.05ZM418.956 100.612H513.564V94.6117H418.956V100.612ZM510.65 96.8981C499.83 141.079 494.376 175.154 494.376 209.306C494.376 243.457 499.83 277.532 510.65 321.714L516.477 320.286C505.714 276.336 500.376 242.782 500.376 209.306C500.376 175.829 505.714 142.276 516.477 98.3253L510.65 96.8981ZM513.564 318H418.956V324H513.564V318ZM421.867 321.728C427.646 298.61 431.622 278.012 434.513 258.856L428.58 257.96C425.716 276.935 421.778 297.346 416.046 320.272L421.867 321.728ZM428.643 257.652C420.897 287.407 406.929 304.142 391.288 313.526C375.549 322.97 357.746 325.194 341.975 325.194V331.194C358.22 331.194 377.289 328.923 394.375 318.671C411.559 308.361 426.369 290.203 434.45 259.164L428.643 257.652ZM341.975 325.194C322.925 325.194 305.467 314.324 299.115 296.606L293.467 298.63C300.784 319.042 320.737 331.194 341.975 331.194V325.194ZM533.348 97.6117V94.6117H529.54L530.432 98.3141L533.348 97.6117ZM627.956 97.6117L630.867 98.3348L631.792 94.6117H627.956V97.6117ZM612.488 234.666L609.496 234.891L615.485 234.798L612.488 234.666ZM750.621 120.994L753.45 119.993L753.447 119.985L750.621 120.994ZM768.608 321V324H773.611L771.254 319.587L768.608 321ZM674 321L671.129 321.869L671.774 324H674V321ZM693.785 135.383L696.752 134.937L696.751 134.933L693.785 135.383ZM627.956 321V324H631.481L630.917 320.52L627.956 321ZM533.348 321L530.432 320.298L529.54 324H533.348V321ZM533.348 100.612H627.956V94.6117H533.348V100.612ZM625.044 96.8886C611.332 152.099 606.226 191.29 609.496 234.891L615.479 234.442C612.274 191.709 617.241 153.2 630.867 98.3348L625.044 96.8886ZM615.485 234.798C619.77 137.311 670.609 93.4172 708.174 93.4172V87.4172C665.88 87.4172 613.839 135.612 609.49 234.535L615.485 234.798ZM708.174 93.4172C725.989 93.4172 741.034 103.069 747.796 122.003L753.447 119.985C745.82 98.6298 728.49 87.4172 708.174 87.4172V93.4172ZM747.793 121.994C752.264 134.633 752.582 147.313 751.206 160.896C750.517 167.697 749.408 174.677 748.199 181.985C746.994 189.268 745.688 196.879 744.635 204.819C740.396 236.768 740.225 274.225 765.961 322.413L771.254 319.587C746.27 272.808 746.458 236.702 750.583 205.609C751.62 197.788 752.905 190.297 754.119 182.965C755.328 175.657 756.465 168.51 757.175 161.501C758.598 147.464 758.332 133.794 753.45 119.993L747.793 121.994ZM768.608 318H674V324H768.608V318ZM676.872 320.131C673.172 307.912 672.888 293.374 674.561 277.49C676.233 261.626 679.826 244.659 683.715 227.646C687.588 210.697 691.765 193.656 694.509 177.901C697.249 162.165 698.624 147.388 696.752 134.937L690.818 135.829C692.543 147.299 691.31 161.3 688.598 176.871C685.89 192.423 681.771 209.218 677.865 226.309C673.975 243.334 670.307 260.608 668.594 276.861C666.884 293.094 667.095 308.547 671.129 321.869L676.872 320.131ZM696.751 134.933C695.797 128.637 693.748 123.627 690.69 120.14C687.571 116.584 683.519 114.756 679.036 114.756V120.756C681.748 120.756 684.171 121.806 686.179 124.096C688.246 126.454 689.974 130.258 690.819 135.832L696.751 134.933ZM679.036 114.756C671.334 114.756 662.864 120.09 655.028 129.135C647.083 138.308 639.34 151.79 633.132 169.272C620.708 204.262 614.315 255.593 624.994 321.48L630.917 320.52C620.373 255.468 626.75 205.177 638.787 171.28C644.809 154.318 652.22 141.541 659.563 133.064C667.016 124.461 673.968 120.756 679.036 120.756V114.756ZM627.956 318H533.348V324H627.956V318ZM536.265 321.702C546.904 277.522 552.266 243.452 552.266 209.306C552.266 175.16 546.904 141.089 536.265 96.9093L530.432 98.3141C541.016 142.266 546.266 175.824 546.266 209.306C546.266 242.788 541.016 276.345 530.432 320.298L536.265 321.702ZM788.392 284.668L785.79 286.16L785.796 286.172L785.803 286.183L788.392 284.668ZM860.337 254.091L862.109 256.512L865.295 254.18L862.195 251.736L860.337 254.091ZM860.337 307.69L862.225 305.358L862.217 305.352L860.337 307.69ZM898.468 249.415L896.755 251.878L896.762 251.883L898.468 249.415ZM836.955 217.4L835.5 220.023L835.506 220.026L836.955 217.4ZM840.193 100.13L839.127 97.3254L839.115 97.33L839.103 97.3346L840.193 100.13ZM976.168 126.03L973.201 126.473L973.203 126.484L973.204 126.495L976.168 126.03ZM933.361 167.758L933.689 170.74L933.698 170.739L933.707 170.738L933.361 167.758ZM907.461 126.03L905.557 123.712L905.54 123.726L905.523 123.74L907.461 126.03ZM887.676 100.849L887.717 97.8495L887.697 97.8492H887.676V100.849ZM875.805 164.88L876.967 162.114L876.956 162.11L875.805 164.88ZM945.951 315.604L947.293 318.287L947.301 318.283L947.309 318.279L945.951 315.604ZM790.995 283.176C783.607 270.289 783.087 258.479 787.016 250.105C790.901 241.826 799.445 236.227 811.774 236.227V230.227C797.484 230.227 786.603 236.859 781.585 247.556C776.61 258.158 777.71 272.067 785.79 286.16L790.995 283.176ZM811.774 236.227C824.182 236.227 840.09 241.948 858.48 256.447L862.195 251.736C843.172 236.737 825.986 230.227 811.774 230.227V236.227ZM858.565 251.671C847.784 259.564 842.654 270.168 842.904 280.96C843.152 291.691 848.707 302.19 858.457 310.028L862.217 305.352C853.621 298.442 849.104 289.516 848.902 280.821C848.703 272.188 852.745 263.368 862.109 256.512L858.565 251.671ZM858.449 310.022C866.462 316.508 875.026 319.683 883.719 319.683V313.683C876.584 313.683 869.321 311.103 862.225 305.358L858.449 310.022ZM883.719 319.683C899.943 319.683 914.624 308.88 919.946 294.332C922.628 286.999 922.934 278.71 919.869 270.419C916.809 262.141 910.466 254.058 900.173 246.947L896.762 251.883C906.255 258.442 911.692 265.602 914.241 272.499C916.786 279.385 916.53 286.204 914.311 292.271C909.83 304.522 897.352 313.683 883.719 313.683V319.683ZM900.181 246.952C891.687 241.043 881.325 235.826 870.626 230.702C859.852 225.541 848.737 220.474 838.404 214.773L835.506 220.026C846.037 225.837 857.405 231.022 868.034 236.113C878.739 241.24 888.701 246.276 896.755 251.878L900.181 246.952ZM838.411 214.776C811.177 199.666 796.957 177.409 796.788 156.447C796.621 135.667 810.275 115.013 841.282 102.925L839.103 97.3346C806.439 110.068 790.596 132.581 790.788 156.496C790.979 180.23 806.976 204.197 835.5 220.023L838.411 214.776ZM841.258 102.934C858.87 96.2417 879.728 92.6978 899.547 92.6978V86.6978C879.077 86.6978 857.488 90.3484 839.127 97.3254L841.258 102.934ZM899.547 92.6978C918.34 92.6978 936.158 95.7185 949.61 101.576C963.122 107.461 971.623 115.903 973.201 126.473L979.135 125.587C977.116 112.056 966.372 102.332 952.005 96.0753C937.578 89.7924 918.884 86.6978 899.547 86.6978V92.6978ZM973.204 126.495C975.731 142.603 962.874 161.306 933.014 164.778L933.707 170.738C965.721 167.015 982.361 146.149 979.132 125.565L973.204 126.495ZM933.033 164.776C917.374 166.497 906.396 161.179 901.904 154.061C899.677 150.531 898.923 146.424 899.958 142.101C901.001 137.74 903.92 132.956 909.399 128.32L905.523 123.74C899.311 128.996 895.53 134.824 894.122 140.704C892.706 146.622 893.751 152.384 896.83 157.263C902.95 166.962 916.613 172.616 933.689 170.74L933.033 164.776ZM909.365 128.348C915.296 123.476 917.579 115.731 913.81 109.005C910.128 102.434 901.327 98.0359 887.717 97.8495L887.635 103.849C900.285 104.022 906.412 108.077 908.576 111.938C910.653 115.645 909.698 120.31 905.557 123.712L909.365 128.348ZM887.676 97.8492C885.027 97.8492 882.129 98.7416 879.301 100.1C876.433 101.477 873.433 103.433 870.525 105.793C864.725 110.502 859.066 117.007 855.45 124.239C851.839 131.461 850.126 139.716 852.814 147.643C855.521 155.627 862.451 162.581 874.654 167.65L876.956 162.11C865.777 157.466 860.477 151.56 858.496 145.717C856.496 139.818 857.638 133.279 860.817 126.922C863.991 120.574 869.057 114.714 874.307 110.452C876.924 108.327 879.531 106.646 881.899 105.508C884.309 104.351 886.278 103.849 887.676 103.849V97.8492ZM874.643 167.646C885.429 172.178 897.897 176.331 910.2 180.838C922.595 185.379 934.962 190.325 945.959 196.539C967.866 208.92 983.96 226.077 983.96 254.811H989.96C989.96 223.111 971.88 204.296 948.911 191.316C937.47 184.85 924.724 179.769 912.264 175.204C899.713 170.606 887.585 166.575 876.967 162.114L874.643 167.646ZM983.96 254.811C983.96 280.367 967.259 301.422 944.593 312.929L947.309 318.279C971.408 306.045 989.96 283.213 989.96 254.811H983.96ZM944.61 312.921C928.569 320.941 907.827 325.194 886.237 325.194V331.194C908.534 331.194 930.239 326.814 947.293 318.287L944.61 312.921ZM886.237 325.194C847.081 325.194 807.446 311.28 790.981 283.152L785.803 286.183C803.872 317.05 846.255 331.194 886.237 331.194V325.194ZM1120.42 288.625L1123.41 288.824L1117.73 287.283L1120.42 288.625ZM996.313 247.257L999.281 247.692L999.282 247.681L996.313 247.257ZM1141.64 184.665L1139.77 187.013L1142.7 189.341L1144.34 185.977L1141.64 184.665ZM1146.32 129.267L1149.19 128.418L1149.19 128.405L1146.32 129.267ZM1102.79 116.677L1105.78 116.916L1105.78 116.9L1105.78 116.883L1102.79 116.677ZM1060.7 163.801L1061.03 166.783L1061.05 166.781L1061.07 166.779L1060.7 163.801ZM1036.24 119.555L1038.2 121.828L1038.22 121.814L1038.23 121.801L1036.24 119.555ZM1199.56 188.622L1196.59 188.167L1196.59 188.168L1199.56 188.622ZM1218.26 321V324H1223.28L1220.9 319.581L1218.26 321ZM1123.65 321L1120.77 321.836L1121.4 324H1123.65V321ZM1069.7 237.184L1072.61 237.912L1072.61 237.905L1069.7 237.184ZM1131.93 209.126L1134.91 209.413L1134.93 209.27V209.126H1131.93ZM1117.73 287.283C1104.96 312.829 1080.5 325.554 1057.11 325.554V331.554C1082.64 331.554 1109.25 317.66 1123.1 289.967L1117.73 287.283ZM1057.11 325.554C1040.24 325.554 1023.93 319.018 1012.79 306.174C1001.68 293.37 995.427 273.97 999.281 247.692L993.344 246.821C989.285 274.502 995.802 295.751 1008.26 310.106C1020.67 324.421 1038.72 331.554 1057.11 331.554V325.554ZM999.282 247.681C1005.86 201.61 1050.37 171.477 1092.72 171.477V165.477C1048.02 165.477 1000.43 197.217 993.343 246.832L999.282 247.681ZM1092.72 171.477C1109.78 171.477 1126.36 176.348 1139.77 187.013L1143.51 182.316C1128.87 170.678 1110.91 165.477 1092.72 165.477V171.477ZM1144.34 185.977C1151.06 172.158 1155.93 151.236 1149.19 128.418L1143.44 130.116C1149.66 151.185 1145.17 170.552 1138.94 183.352L1144.34 185.977ZM1149.19 128.405C1143.55 109.617 1129.37 98.2089 1117.18 98.2089V104.209C1125.86 104.209 1138.29 112.945 1143.44 130.129L1149.19 128.405ZM1117.18 98.2089C1112.72 98.2089 1108.5 99.7109 1105.3 102.91C1102.11 106.097 1100.2 110.708 1099.8 116.471L1105.78 116.883C1106.11 112.215 1107.6 109.091 1109.54 107.152C1111.47 105.225 1114.09 104.209 1117.18 104.209V98.2089ZM1099.8 116.438C1098.41 133.813 1092.56 144.268 1085.29 150.669C1077.97 157.127 1068.84 159.782 1060.34 160.823L1061.07 166.779C1070.19 165.661 1080.67 162.74 1089.26 155.17C1097.92 147.541 1104.29 135.513 1105.78 116.916L1099.8 116.438ZM1060.38 160.819C1044.82 162.528 1034.25 156.76 1030.06 149.135C1025.96 141.684 1027.3 131.218 1038.2 121.828L1034.28 117.282C1021.8 128.036 1019.01 141.491 1024.8 152.027C1030.5 162.388 1043.85 168.671 1061.03 166.783L1060.38 160.819ZM1038.23 121.801C1059.58 102.899 1089.08 92.6978 1116.82 92.6978V86.6978C1087.73 86.6978 1056.79 97.3602 1034.25 117.309L1038.23 121.801ZM1116.82 92.6978C1140.7 92.6978 1163.13 100.248 1178.3 115.762C1193.39 131.194 1201.69 154.916 1196.59 188.167L1202.52 189.077C1207.85 154.34 1199.25 128.6 1182.59 111.567C1166.01 94.6152 1141.87 86.6978 1116.82 86.6978V92.6978ZM1196.59 188.168C1193.9 205.728 1190.69 224.588 1192.16 246.379C1193.63 268.233 1199.78 292.927 1215.62 322.419L1220.9 319.581C1205.45 290.798 1199.55 266.929 1198.14 245.976C1196.73 224.96 1199.81 206.768 1202.52 189.076L1196.59 188.168ZM1218.26 318H1123.65V324H1218.26V318ZM1126.54 320.164C1123.41 309.407 1122.71 299.334 1123.41 288.824L1117.42 288.425C1116.69 299.499 1117.42 310.29 1120.77 321.836L1126.54 320.164ZM1066.79 236.457C1062.01 255.554 1062.57 271.565 1066.65 282.979C1070.71 294.35 1078.56 301.697 1088.4 301.697V295.697C1082.05 295.697 1075.88 290.993 1072.3 280.961C1068.73 270.972 1068.03 256.226 1072.61 237.912L1066.79 236.457ZM1088.4 301.697C1098.31 301.697 1108.45 294.038 1116.7 279.249C1125.02 264.329 1131.83 241.49 1134.91 209.413L1128.94 208.839C1125.91 240.433 1119.23 262.38 1111.46 276.327C1103.61 290.407 1095.04 295.697 1088.4 295.697V301.697ZM1134.93 209.126C1134.93 200.439 1132.95 193.676 1129.3 189.019C1125.58 184.279 1120.36 182.025 1114.66 182.025V188.025C1118.67 188.025 1122.09 189.547 1124.58 192.721C1127.13 195.978 1128.93 201.266 1128.93 209.126H1134.93ZM1114.66 182.025C1105.79 182.025 1095.88 187.315 1087.29 196.511C1078.63 205.781 1071.03 219.293 1066.78 236.464L1072.61 237.905C1076.64 221.621 1083.78 209.053 1091.67 200.607C1099.63 192.087 1108.07 188.025 1114.66 188.025V182.025ZM1234.81 321L1231.89 320.298L1231 324H1234.81V321ZM1234.81 0.846078V-2.15392H1231L1231.89 1.54845L1234.81 0.846078ZM1329.42 0.846078L1332.33 1.55968L1333.24 -2.15392H1329.42V0.846078ZM1329.42 321V324H1333.24L1332.33 320.286L1329.42 321ZM1237.73 321.702C1259.06 233.108 1259.06 88.7376 1237.73 0.143708L1231.89 1.54845C1253.01 89.2191 1253.01 232.627 1231.89 320.298L1237.73 321.702ZM1234.81 3.84608H1329.42V-2.15392H1234.81V3.84608ZM1326.5 0.132471C1304.8 88.7335 1304.8 233.113 1326.5 321.714L1332.33 320.286C1310.86 232.623 1310.86 89.2231 1332.33 1.55968L1326.5 0.132471ZM1329.42 318H1234.81V324H1329.42V318ZM1462.51 288.625L1465.51 288.824L1459.83 287.283L1462.51 288.625ZM1338.41 247.257L1341.38 247.692L1341.38 247.681L1338.41 247.257ZM1483.74 184.665L1481.87 187.013L1484.8 189.341L1486.44 185.977L1483.74 184.665ZM1488.41 129.267L1491.29 128.418L1491.29 128.405L1488.41 129.267ZM1444.89 116.677L1447.88 116.916L1447.88 116.9L1447.88 116.883L1444.89 116.677ZM1402.8 163.801L1403.13 166.783L1403.15 166.781L1403.16 166.779L1402.8 163.801ZM1378.34 119.555L1380.3 121.828L1380.31 121.814L1380.33 121.801L1378.34 119.555ZM1541.65 188.622L1538.69 188.167L1538.69 188.168L1541.65 188.622ZM1560.36 321V324H1565.38L1563 319.581L1560.36 321ZM1465.75 321L1462.87 321.836L1463.5 324H1465.75V321ZM1411.79 237.184L1414.7 237.912L1414.71 237.905L1411.79 237.184ZM1474.03 209.126L1477.01 209.413L1477.03 209.27V209.126H1474.03ZM1459.83 287.283C1447.06 312.829 1422.59 325.554 1399.2 325.554V331.554C1424.73 331.554 1451.35 317.66 1465.2 289.967L1459.83 287.283ZM1399.2 325.554C1382.34 325.554 1366.03 319.018 1354.88 306.174C1343.78 293.37 1337.52 273.97 1341.38 247.692L1335.44 246.821C1331.38 274.502 1337.9 295.751 1350.35 310.106C1362.77 324.421 1380.82 331.554 1399.2 331.554V325.554ZM1341.38 247.681C1347.96 201.61 1392.46 171.477 1434.82 171.477V165.477C1390.11 165.477 1342.53 197.217 1335.44 246.832L1341.38 247.681ZM1434.82 171.477C1451.88 171.477 1468.45 176.348 1481.87 187.013L1485.6 182.316C1470.96 170.678 1453.01 165.477 1434.82 165.477V171.477ZM1486.44 185.977C1493.16 172.158 1498.02 151.236 1491.29 128.418L1485.54 130.116C1491.75 151.185 1487.27 170.552 1481.04 183.352L1486.44 185.977ZM1491.29 128.405C1485.65 109.617 1471.46 98.2089 1459.28 98.2089V104.209C1467.95 104.209 1480.39 112.945 1485.54 130.129L1491.29 128.405ZM1459.28 98.2089C1454.81 98.2089 1450.6 99.7109 1447.4 102.91C1444.21 106.097 1442.29 110.708 1441.89 116.471L1447.88 116.883C1448.2 112.215 1449.7 109.091 1451.64 107.152C1453.57 105.225 1456.19 104.209 1459.28 104.209V98.2089ZM1441.9 116.438C1440.51 133.813 1434.65 144.268 1427.39 150.669C1420.06 157.127 1410.93 159.782 1402.44 160.823L1403.16 166.779C1412.29 165.661 1422.77 162.74 1431.36 155.17C1440.01 147.541 1446.39 135.513 1447.88 116.916L1441.9 116.438ZM1402.47 160.819C1386.92 162.528 1376.35 156.76 1372.15 149.135C1368.06 141.684 1369.4 131.218 1380.3 121.828L1376.38 117.282C1363.9 128.036 1361.1 141.491 1366.9 152.027C1372.6 162.388 1385.94 168.671 1403.13 166.783L1402.47 160.819ZM1380.33 121.801C1401.68 102.899 1431.17 92.6978 1458.92 92.6978V86.6978C1429.83 86.6978 1398.88 97.3602 1376.35 117.309L1380.33 121.801ZM1458.92 92.6978C1482.79 92.6978 1505.23 100.248 1520.4 115.762C1535.49 131.194 1543.79 154.916 1538.69 188.167L1544.62 189.077C1549.95 154.34 1541.34 128.6 1524.69 111.567C1508.11 94.6152 1483.96 86.6978 1458.92 86.6978V92.6978ZM1538.69 188.168C1536 205.728 1532.79 224.588 1534.25 246.379C1535.72 268.233 1541.88 292.927 1557.72 322.419L1563 319.581C1547.54 290.798 1541.65 266.929 1540.24 245.976C1538.83 224.96 1541.91 206.768 1544.62 189.076L1538.69 188.168ZM1560.36 318H1465.75V324H1560.36V318ZM1468.63 320.164C1465.51 309.407 1464.81 299.334 1465.51 288.824L1459.52 288.425C1458.78 299.499 1459.52 310.29 1462.87 321.836L1468.63 320.164ZM1408.88 236.457C1404.11 255.554 1404.67 271.565 1408.74 282.979C1412.8 294.35 1420.66 301.697 1430.5 301.697V295.697C1424.15 295.697 1417.98 290.993 1414.39 280.961C1410.83 270.972 1410.12 256.226 1414.7 237.912L1408.88 236.457ZM1430.5 301.697C1440.4 301.697 1450.55 294.038 1458.79 279.249C1467.11 264.329 1473.93 241.49 1477.01 209.413L1471.04 208.839C1468 240.433 1461.33 262.38 1453.55 276.327C1445.7 290.407 1437.14 295.697 1430.5 295.697V301.697ZM1477.03 209.126C1477.03 200.439 1475.05 193.676 1471.39 189.019C1467.68 184.279 1462.46 182.025 1456.76 182.025V188.025C1460.77 188.025 1464.18 189.547 1466.67 192.721C1469.23 195.978 1471.03 201.266 1471.03 209.126H1477.03ZM1456.76 182.025C1447.89 182.025 1437.97 187.315 1429.39 196.511C1420.73 205.781 1413.13 219.293 1408.88 236.464L1414.71 237.905C1418.73 221.621 1425.88 209.053 1433.77 200.607C1441.73 192.087 1450.16 188.025 1456.76 188.025V182.025Z" fill="#1F1F1F"/>
</svg>
