<svg width="405" height="255" viewBox="0 0 405 255" fill="none" xmlns="http://www.w3.org/2000/svg">
<path d="M117.623 0.5C129.274 0.5 140.041 1.38458 149.923 4.0383C159.779 5.80744 167.892 9.49737 175.095 13.9202C182.323 18.3684 187.656 24.6868 191.295 32.7996C194.834 40.8871 196.754 50.769 196.754 61.5356C196.754 74.0712 194.075 84.8378 187.757 92.9253C182.323 101.013 173.452 108.241 162.559 113.574C177.875 118.022 189.526 126.109 196.628 136.876C203.73 147.642 208.279 161.063 208.279 176.378C208.279 188.914 205.625 199.681 201.076 208.678C196.538 217.734 189.728 225.458 181.312 231.096C173.225 236.529 163.343 240.952 152.576 243.631C142.03 246.417 131.184 247.91 120.277 248.079L0 248.256V0.5H117.623ZM110.42 101.038C120.277 101.038 128.364 98.3844 134.607 93.8351C140.824 89.2859 143.579 81.2742 143.579 71.4175C143.579 65.9584 142.694 60.651 140.925 57.0874C139.01 53.4757 136.232 50.3935 132.838 48.1153C129.171 46.1162 125.252 44.62 121.187 43.6672C116.738 42.7826 112.189 42.7826 106.856 42.7826H54.8436V101.164C54.8436 101.038 110.42 101.038 110.42 101.038ZM113.074 207.01C118.508 207.01 123.84 206.125 128.39 205.241C132.838 204.356 137.387 202.562 140.925 199.782C144.463 197.002 147.244 194.348 149.923 189.925C151.692 185.477 153.461 180.043 153.461 173.725C153.461 161.189 149.923 152.192 142.694 145.873C135.491 140.44 125.609 137.786 113.958 137.786H54.8436V206.884H113.099L113.074 207.01ZM286.4 206.125C293.628 213.328 304.369 216.892 318.699 216.892C328.556 216.892 337.553 214.213 344.781 209.664C351.984 204.23 356.407 198.897 358.176 193.489H402.152C394.924 214.996 384.158 230.312 369.853 240.194C355.548 249.166 338.438 254.499 317.789 254.499C304.586 254.558 291.49 252.113 279.197 247.296C268.132 243.183 258.26 236.393 250.461 227.532C242.142 219.27 235.965 209.102 232.466 197.912C228.043 186.26 226.148 173.725 226.148 159.294C226.148 145.873 227.917 133.211 232.466 121.56C237.015 109.934 243.232 100.027 251.345 91.0551C259.433 82.9675 269.315 75.7393 280.081 71.2912C292.086 66.5114 304.893 64.0666 317.815 64.0882C333.13 64.0882 346.551 66.7419 358.202 73.0603C369.828 79.3787 378.85 86.5058 386.053 97.2723C393.256 107.129 398.589 118.78 402.253 131.341C404.023 143.877 404.907 156.513 404.023 170.844H273.864C273.864 185.502 279.171 198.897 286.4 206.125ZM343.012 111.805C336.694 105.486 326.787 101.923 315.136 101.923C307.048 101.923 300.831 103.692 295.397 106.371C289.963 109.025 286.4 112.689 282.861 116.227C279.558 119.696 277.359 124.068 276.543 128.788C275.633 133.211 274.774 136.876 274.774 140.414H355.548C353.779 127.12 349.255 118.123 343.012 111.805ZM263.982 17.5849H364.52V41.7717H263.982V17.5849Z" fill="black"/>
</svg>
