<svg width="255" height="254" viewBox="0 0 255 254" fill="none" xmlns="http://www.w3.org/2000/svg">
<path d="M127.376 0C57.2087 0 0.376221 58.27 0.376221 130.212C0.376221 187.831 36.73 236.498 87.2125 253.751C93.5625 254.891 95.9437 250.984 95.9437 247.566C95.9437 244.474 95.785 234.219 95.785 223.314C63.8762 229.336 55.6212 215.339 53.0812 208.014C51.6525 204.271 45.4612 192.714 40.0637 189.622C35.6187 187.18 29.2687 181.158 39.905 180.995C49.9062 180.832 57.05 190.435 59.4312 194.342C70.8612 214.036 89.1175 208.502 96.42 205.084C97.5312 196.621 100.865 190.924 104.516 187.668C76.2587 184.413 46.7312 173.182 46.7312 123.376C46.7312 109.216 51.6525 97.4965 59.7487 88.3816C58.4787 85.1263 54.0337 71.7795 61.0187 53.8753C61.0187 53.8753 71.655 50.4573 95.9437 67.2221C106.104 64.2923 116.899 62.8274 127.694 62.8274C138.489 62.8274 149.284 64.2923 159.444 67.2221C183.732 50.2945 194.369 53.8753 194.369 53.8753C201.354 71.7795 196.909 85.1263 195.639 88.3816C203.735 97.4965 208.656 109.053 208.656 123.376C208.656 173.345 178.97 184.413 150.712 187.668C155.316 191.738 159.285 199.55 159.285 211.758C159.285 229.174 159.126 243.171 159.126 247.566C159.126 250.984 161.507 255.053 167.857 253.751C193.071 245.027 214.98 228.414 230.501 206.252C246.021 184.09 254.372 157.496 254.376 130.212C254.376 58.27 197.544 0 127.376 0Z" fill="black"/>
</svg>
