<svg width="318" height="254" viewBox="0 0 318 254" fill="none" xmlns="http://www.w3.org/2000/svg">
<path d="M285.75 222.25H254V83.3438L158.75 142.875L63.5 83.3438V222.25H31.75V31.75H50.8L158.75 99.2188L266.7 31.75H285.75M285.75 0H31.75C14.1287 0 0 14.1287 0 31.75V222.25C0 230.671 3.34508 238.746 9.29936 244.701C15.2536 250.655 23.3294 254 31.75 254H285.75C294.171 254 302.246 250.655 308.201 244.701C314.155 238.746 317.5 230.671 317.5 222.25V31.75C317.5 23.3294 314.155 15.2536 308.201 9.29936C302.246 3.34508 294.171 0 285.75 0Z" fill="black"/>
</svg>
