<svg width="236" height="236" viewBox="0 0 236 236" fill="none" xmlns="http://www.w3.org/2000/svg">
<path d="M129.688 0.475162C138.269 0.442233 146.85 0.528477 155.429 0.733867L157.71 0.816181C160.344 0.910255 162.943 1.02785 166.083 1.16896C178.595 1.75692 187.132 3.73248 194.622 6.63702C202.384 9.62387 208.922 13.6691 215.46 20.2072C221.438 26.0822 226.065 33.1888 229.018 41.0328C231.923 48.5235 233.898 57.0725 234.486 69.5843C234.628 72.7123 234.745 75.3229 234.839 77.9569L234.91 80.2382C235.119 88.813 235.209 97.3902 235.18 105.967L235.192 114.74V130.145C235.221 138.726 235.131 147.307 234.921 155.886L234.851 158.167C234.757 160.801 234.639 163.4 234.498 166.539C233.91 179.051 231.911 187.589 229.018 195.079C226.074 202.932 221.446 210.044 215.46 215.917C209.58 221.894 202.47 226.521 194.622 229.475C187.132 232.38 178.595 234.355 166.083 234.943C162.943 235.084 160.344 235.202 157.71 235.296L155.429 235.366C146.85 235.575 138.269 235.666 129.688 235.637L120.915 235.649H105.523C96.9414 235.678 88.3603 235.587 79.7816 235.378L77.5003 235.308C74.7088 235.206 71.9178 235.089 69.1277 234.955C56.6158 234.367 48.0786 232.368 40.5762 229.475C32.7291 226.527 25.6212 221.9 19.7506 215.917C13.7656 210.04 9.13461 202.929 6.1804 195.079C3.27586 187.589 1.3003 179.051 0.71234 166.539C0.581376 163.749 0.463782 160.958 0.359562 158.167L0.300768 155.886C0.0839691 147.307 -0.0140352 138.726 0.0067851 130.145V105.967C-0.0260346 97.3903 0.0602091 88.813 0.26549 80.2382L0.347804 77.9569C0.441878 75.3229 0.55947 72.7123 0.700581 69.5843C1.28854 57.0607 3.2641 48.5353 6.16863 41.0328C9.12459 33.185 13.7647 26.0803 19.7623 20.219C25.629 14.2306 32.7323 9.59532 40.5762 6.63702C48.0786 3.73248 56.6041 1.75692 69.1277 1.16896L77.5003 0.816181L79.7816 0.757386C88.3562 0.540696 96.9335 0.442692 105.511 0.463403L129.688 0.475162ZM117.599 59.2715C109.809 59.1613 102.074 60.6005 94.8449 63.5056C87.6156 66.4106 81.0357 70.7236 75.4876 76.1937C69.9396 81.6638 65.5341 88.1821 62.5271 95.3696C59.5201 102.557 57.9716 110.271 57.9716 118.062C57.9716 125.853 59.5201 133.567 62.5271 140.754C65.5341 147.942 69.9396 154.46 75.4876 159.93C81.0357 165.4 87.6156 169.713 94.8449 172.618C102.074 175.523 109.809 176.962 117.599 176.852C133.193 176.852 148.148 170.658 159.175 159.631C170.201 148.605 176.396 133.65 176.396 118.056C176.396 102.462 170.201 87.5072 159.175 76.4807C148.148 65.4543 133.193 59.2715 117.599 59.2715ZM117.599 82.79C122.286 82.7036 126.942 83.552 131.296 85.2854C135.651 87.0188 139.617 89.6026 142.961 92.8858C146.306 96.1691 148.963 100.086 150.777 104.408C152.592 108.729 153.526 113.369 153.527 118.056C153.528 122.743 152.595 127.383 150.782 131.705C148.969 136.027 146.314 139.945 142.97 143.229C139.626 146.514 135.661 149.099 131.307 150.834C126.953 152.569 122.297 153.419 117.611 153.334C108.255 153.334 99.2818 149.617 92.666 143.001C86.0501 136.385 82.3334 127.412 82.3334 118.056C82.3334 108.7 86.0501 99.7267 92.666 93.1108C99.2818 86.495 108.255 82.7782 117.611 82.7782L117.599 82.79ZM179.335 41.6326C175.542 41.7844 171.954 43.3982 169.324 46.136C166.693 48.8738 165.224 52.5232 165.224 56.3199C165.224 60.1165 166.693 63.7659 169.324 66.5037C171.954 69.2415 175.542 70.8554 179.335 71.0072C183.234 71.0072 186.973 69.4586 189.729 66.7019C192.486 63.9453 194.035 60.2066 194.035 56.3081C194.035 52.4097 192.486 48.6709 189.729 45.9143C186.973 43.1577 183.234 41.6091 179.335 41.6091V41.6326Z" fill="black"/>
</svg>
